<?xml version="1.0" encoding="UTF-8" standalone="yes"?>
<svg width="1024" height="1024" viewBox="0 0 1024 1024" version="1.2" baseProfile="tiny-ps" xmlns="http://www.w3.org/2000/svg">
  <title>bimi-svg-tiny-12-ps</title>
  <g>
    <path d="M 493.50 1013.37 C489.10,1013.18 477.40,1012.32 467.50,1011.47 C250.77,992.80 69.52,834.18 21.99,621.60 C13.26,582.56 10.54,556.55 10.52,512.00 C10.50,471.38 12.56,448.07 19.09,415.00 C60.10,207.43 226.56,47.58 435.00,15.62 C463.72,11.22 474.54,10.50 512.00,10.50 C548.15,10.50 557.49,11.09 585.50,15.14 C666.53,26.87 746.16,60.07 812.50,109.81 C846.10,134.99 882.17,170.37 907.60,203.08 C961.99,273.06 996.83,355.59 1008.88,443.00 C1012.18,466.92 1013.28,484.12 1013.28,511.50 C1013.28,546.85 1010.72,574.54 1004.38,607.50 C964.55,814.75 795.93,976.40 586.65,1007.96 C560.49,1011.91 517.24,1014.42 493.50,1013.37 ZM 513.60 957.75 C514.39,958.99 515.87,960.00 516.87,960.00 C518.99,960.00 522.34,956.67 521.28,955.61 C520.88,955.22 521.09,954.56 521.75,954.16 C522.40,953.75 523.16,950.29 523.43,946.46 C524.02,938.28 524.76,933.20 525.55,931.93 C526.04,931.12 526.32,930.13 527.34,925.50 C527.46,924.95 527.83,924.05 528.16,923.50 C529.40,921.42 532.30,910.41 532.16,908.25 C532.09,907.01 532.41,906.00 532.88,906.00 C534.03,906.00 538.13,896.01 537.43,894.89 C537.13,894.40 537.27,894.00 537.74,894.00 C538.21,894.00 539.64,891.86 540.91,889.25 C544.52,881.79 558.34,861.67 559.23,862.56 C559.50,862.83 560.34,862.28 561.11,861.33 C562.31,859.85 562.30,859.72 561.00,860.39 C559.03,861.42 565.00,855.93 567.97,854.00 C569.23,853.17 571.00,851.77 571.88,850.88 C572.77,849.98 574.95,848.52 576.72,847.62 C578.49,846.72 580.82,845.04 581.89,843.88 C582.97,842.73 584.30,842.07 584.85,842.41 C586.01,843.12 591.00,838.84 591.00,837.14 C591.00,836.51 590.12,835.12 589.05,834.05 C586.77,831.77 581.00,828.63 581.00,829.66 C581.00,830.06 579.60,828.94 577.88,827.19 C576.17,825.44 574.35,824.00 573.84,824.00 C573.33,824.00 572.37,823.57 571.71,823.04 C564.78,817.56 557.01,810.57 559.00,811.61 C559.83,812.04 558.36,810.01 555.75,807.09 C551.21,802.02 550.50,800.74 550.97,798.50 C551.53,795.85 549.70,779.07 548.91,779.56 C548.41,779.87 548.00,778.49 548.00,776.50 C548.00,774.34 548.40,773.13 549.00,773.50 C549.64,773.90 550.03,770.41 550.08,763.81 C550.13,758.14 550.36,742.81 550.59,729.75 C550.87,714.78 550.67,706.00 550.05,706.00 C549.05,706.00 549.19,699.48 550.21,698.46 C551.35,697.31 575.00,696.81 575.00,697.93 C575.00,698.67 585.31,699.00 608.50,699.00 C630.17,699.00 642.00,698.65 642.00,698.00 C642.00,697.45 642.79,696.99 643.75,696.98 C645.25,696.97 645.28,696.83 644.00,696.00 C643.08,695.41 642.97,695.02 643.70,695.02 C644.36,695.01 645.30,695.71 645.78,696.57 C646.51,697.87 648.77,698.12 659.08,698.03 C678.75,697.87 683.05,697.12 686.63,693.26 C688.71,691.02 688.92,687.31 686.90,688.56 C686.40,688.87 686.00,688.73 686.00,688.26 C686.00,687.79 684.42,687.30 682.50,687.17 C679.92,687.00 679.00,687.34 679.00,688.47 C679.00,690.92 674.63,690.35 673.49,687.75 C672.94,686.50 671.61,685.50 670.50,685.50 C669.40,685.50 668.28,685.22 668.00,684.88 C667.06,683.72 654.66,679.09 653.84,679.60 C653.39,679.88 652.46,679.62 651.76,679.03 C649.53,677.14 637.96,670.00 637.12,670.00 C635.36,670.00 631.75,664.61 625.41,652.50 C623.31,648.50 619.45,645.76 615.08,645.16 C613.11,644.89 598.09,644.63 581.71,644.59 C559.32,644.52 553.41,644.94 551.65,642.44 C550.76,641.18 550.93,639.18 550.57,636.00 C550.29,633.53 549.78,629.60 549.43,627.28 C549.12,625.19 548.81,623.69 549.35,622.62 C550.77,619.81 558.03,619.94 586.34,620.05 C613.38,620.15 621.20,619.89 622.87,618.85 C624.04,618.12 625.00,617.15 625.00,616.70 C625.00,616.25 625.37,616.11 625.83,616.39 C626.28,616.67 630.44,614.64 635.08,611.87 C639.71,609.10 645.17,605.97 647.21,604.92 C649.25,603.86 651.77,602.09 652.81,600.97 C653.85,599.86 655.73,598.74 656.99,598.50 C659.96,597.93 663.00,595.15 663.00,593.00 C663.00,592.07 662.10,590.50 661.00,589.50 C659.90,588.50 659.00,588.02 659.00,588.42 C659.00,588.82 658.29,588.44 657.43,587.57 C656.56,586.71 655.21,586.00 654.43,586.00 C653.64,586.00 653.00,585.65 653.00,585.22 C653.00,584.07 647.69,581.20 646.42,581.66 C645.83,581.87 644.13,580.93 642.65,579.55 C641.17,578.18 637.15,575.58 633.73,573.78 C630.31,571.97 627.28,570.25 627.00,569.95 C625.46,568.26 618.96,565.00 617.13,565.00 C615.96,565.00 615.00,564.55 615.00,564.00 C615.00,563.35 603.67,563.00 583.00,563.00 L 551.00 563.00 L 551.00 559.05 C551.00,556.87 550.46,553.92 549.81,552.48 C548.94,550.57 548.92,549.67 549.73,549.17 C550.34,548.79 550.99,546.91 551.17,544.99 C551.43,542.26 551.99,541.43 553.75,541.18 C554.99,541.00 556.00,540.44 556.00,539.93 C556.00,539.37 573.91,539.00 601.00,539.00 C630.33,539.00 646.00,539.35 646.00,540.00 C646.00,540.55 647.03,541.00 648.29,541.00 C651.09,541.00 658.27,547.34 660.45,551.75 C661.37,553.63 662.82,555.00 663.86,555.00 C664.85,555.00 666.00,555.33 666.41,555.74 C666.81,556.15 668.42,556.53 669.98,556.59 C672.10,556.68 673.10,556.07 673.97,554.17 C677.35,546.74 686.00,538.07 695.50,532.57 C698.25,530.98 700.85,529.10 701.28,528.38 C701.70,527.67 702.72,527.34 703.53,527.65 C704.34,527.96 705.00,527.69 705.00,527.05 C705.00,526.41 705.45,526.16 706.00,526.50 C706.55,526.84 707.00,526.60 707.00,525.98 C707.00,525.35 707.56,525.02 708.23,525.24 C708.91,525.47 711.73,524.81 714.48,523.77 C717.24,522.73 720.67,521.72 722.10,521.51 C723.53,521.30 727.52,520.40 730.97,519.51 C734.42,518.61 737.85,518.11 738.59,518.40 C741.47,519.50 742.84,516.12 742.08,509.83 C741.92,508.54 736.32,507.93 733.71,508.92 C731.67,509.69 730.72,509.58 729.55,508.41 C728.72,507.57 727.24,506.73 726.27,506.52 C725.30,506.32 722.52,505.44 720.11,504.57 C714.92,502.70 711.19,501.81 708.70,501.85 C707.70,501.87 706.64,501.24 706.34,500.45 C706.04,499.66 705.39,499.26 704.90,499.56 C704.40,499.87 704.00,499.71 704.00,499.21 C704.00,498.71 702.09,497.46 699.75,496.43 C697.41,495.40 695.28,494.32 695.00,494.02 C694.72,493.73 692.70,492.15 690.50,490.52 C688.30,488.89 685.83,486.73 685.00,485.74 C684.17,484.74 682.42,483.38 681.10,482.71 C679.77,482.05 677.07,478.47 675.10,474.77 C671.18,467.44 669.83,466.31 667.60,468.54 C666.80,469.34 665.71,470.00 665.18,470.00 C664.65,470.00 663.94,470.70 663.61,471.56 C663.28,472.42 662.59,472.87 662.08,472.55 C661.56,472.23 660.86,472.87 660.51,473.97 C660.16,475.07 658.22,477.66 656.19,479.74 L 652.50 483.51 L 638.00 483.63 C630.03,483.69 621.92,483.83 620.00,483.93 C615.90,484.13 611.76,483.59 610.21,482.63 C609.61,482.26 606.13,481.82 602.47,481.65 C598.82,481.48 595.53,480.89 595.17,480.34 C594.27,478.99 570.00,469.75 567.57,469.83 C566.50,469.87 564.53,468.80 563.18,467.45 C561.83,466.10 560.34,464.94 559.86,464.88 C559.39,464.81 558.53,464.69 557.96,464.62 C557.39,464.56 556.61,464.03 556.21,463.45 C555.82,462.88 554.03,461.38 552.23,460.12 C546.92,456.41 545.78,452.36 545.81,437.29 C545.83,430.02 546.15,423.05 546.52,421.79 C548.22,416.11 552.70,407.29 554.99,405.13 C556.37,403.83 557.38,402.33 557.23,401.81 C557.07,401.28 557.36,401.10 557.86,401.41 C558.36,401.72 559.33,401.31 560.01,400.49 C560.69,399.67 560.90,399.00 560.47,399.00 C559.26,399.00 563.17,395.00 564.40,394.97 C565.01,394.95 567.30,393.13 569.50,390.93 C571.70,388.73 576.42,385.04 580.00,382.73 C583.58,380.43 586.82,378.08 587.21,377.52 C587.90,376.53 588.33,376.39 591.46,376.12 C592.26,376.06 593.84,375.02 594.96,373.81 C596.08,372.61 597.00,371.94 597.00,372.33 C597.00,373.04 605.07,369.27 606.00,368.12 C606.28,367.78 608.66,366.38 611.31,365.00 C615.62,362.76 620.19,359.42 628.14,352.72 C629.59,351.50 631.98,349.60 633.46,348.50 C636.74,346.07 649.45,333.47 653.29,328.85 C654.82,327.01 656.90,324.60 657.91,323.50 C663.24,317.68 679.02,291.42 679.28,287.91 C679.36,286.86 679.73,286.00 680.10,286.00 C681.46,286.00 688.78,265.71 689.53,259.88 C689.78,257.90 690.65,254.69 691.46,252.76 C692.26,250.83 692.68,249.02 692.39,248.73 C692.11,248.44 692.41,246.24 693.08,243.85 C695.06,236.71 695.22,234.44 695.36,212.00 C695.48,193.62 695.23,189.67 693.66,184.77 C692.65,181.61 692.02,178.46 692.26,177.77 C692.50,177.07 692.29,175.15 691.79,173.50 C690.76,170.05 690.10,167.48 689.42,164.17 C689.15,162.89 688.05,159.52 686.97,156.67 C685.89,153.83 685.00,150.29 685.00,148.82 C685.00,145.92 682.45,142.68 680.64,143.29 C680.02,143.49 678.90,143.05 678.15,142.30 C677.17,141.31 676.43,141.23 675.50,142.00 C673.62,143.56 672.99,146.91 674.33,148.16 C675.93,149.65 674.61,177.67 672.47,187.50 C672.11,189.15 671.67,191.40 671.50,192.50 C671.10,194.96 667.74,205.98 665.60,211.86 C664.73,214.25 664.24,216.58 664.52,217.03 C664.79,217.47 664.31,218.55 663.44,219.42 C662.57,220.29 662.23,221.01 662.68,221.02 C663.13,221.02 663.02,221.36 662.42,221.77 C661.83,222.17 659.13,226.77 656.42,232.00 C653.72,237.23 650.98,242.05 650.35,242.72 C649.71,243.40 648.16,245.65 646.89,247.72 C645.62,249.80 643.10,253.07 641.30,255.00 C639.49,256.92 638.01,258.81 638.01,259.19 C638.00,260.24 620.60,277.06 615.98,280.50 C613.76,282.15 611.38,283.95 610.68,284.50 C609.03,285.81 606.83,287.19 599.25,291.70 C595.81,293.75 593.00,295.81 593.00,296.27 C593.00,296.74 592.59,296.86 592.08,296.55 C591.57,296.24 590.45,296.69 589.58,297.56 C588.71,298.43 588.00,298.87 588.00,298.55 C588.00,297.56 581.64,301.11 579.62,303.22 C578.42,304.48 576.89,305.02 575.35,304.73 C574.03,304.47 569.92,305.37 566.22,306.72 C562.53,308.08 557.99,309.38 556.14,309.61 C554.29,309.85 552.04,310.42 551.14,310.88 C550.24,311.34 547.49,311.67 545.04,311.61 L 540.58 311.50 L 537.54 303.77 C535.87,299.52 533.65,295.43 532.60,294.68 C531.25,293.70 530.86,292.53 531.23,290.59 C531.84,287.39 528.68,276.54 526.51,274.37 C525.43,273.29 525.28,272.35 525.97,271.06 C526.50,270.07 526.70,269.03 526.42,268.75 C526.14,268.47 525.70,266.95 525.45,265.37 C525.19,263.79 524.68,261.38 524.31,260.00 C523.34,256.35 522.91,253.05 522.77,248.25 C522.70,245.91 522.22,244.00 521.71,244.00 C521.20,244.00 521.05,243.31 521.37,242.47 C521.77,241.45 521.13,240.62 519.47,239.99 C516.24,238.76 512.24,242.00 511.53,246.42 C510.83,250.77 509.90,257.06 509.53,260.00 C509.35,261.38 508.93,263.51 508.60,264.75 C508.27,265.99 507.81,267.79 507.59,268.75 C507.36,269.71 506.65,271.85 506.01,273.50 C505.37,275.15 504.68,277.62 504.48,279.00 C504.28,280.38 503.67,282.96 503.12,284.75 C502.58,286.54 502.39,288.00 502.69,288.00 C503.00,288.00 502.78,288.56 502.22,289.25 C500.28,291.63 496.10,303.10 496.66,304.55 C496.96,305.35 496.73,306.00 496.13,306.00 C495.54,306.00 494.33,307.39 493.46,309.09 C492.02,311.86 491.49,312.12 488.18,311.69 C486.16,311.42 480.68,310.07 476.02,308.69 C471.36,307.30 467.19,306.38 466.77,306.64 C466.35,306.90 466.00,306.68 466.00,306.14 C466.00,305.24 455.99,301.36 455.11,301.92 C454.90,302.06 454.45,301.75 454.11,301.22 C453.09,299.65 447.01,296.88 445.97,297.52 C445.44,297.85 445.00,297.61 445.00,297.00 C445.00,296.39 444.57,296.15 444.04,296.48 C443.51,296.80 442.27,296.27 441.28,295.29 C440.29,294.30 437.01,291.93 433.99,290.02 C430.97,288.10 427.63,285.74 426.56,284.77 C425.50,283.79 424.32,283.00 423.96,283.00 C423.59,283.00 422.07,281.87 420.58,280.48 C419.08,279.10 417.56,278.09 417.18,278.25 C416.81,278.41 414.25,276.34 411.50,273.66 C408.75,270.98 407.06,269.09 407.75,269.45 C408.44,269.82 409.00,269.86 409.00,269.53 C409.00,269.21 407.90,268.53 406.55,268.02 C405.21,267.51 403.29,265.83 402.30,264.29 C401.31,262.76 399.60,260.60 398.50,259.50 C391.82,252.82 377.93,229.99 372.95,217.50 C371.19,213.10 369.29,209.21 368.73,208.85 C368.17,208.49 367.98,207.49 368.31,206.63 C368.64,205.77 368.26,204.40 367.46,203.60 C366.66,202.80 366.00,200.65 366.00,198.81 C366.00,196.98 365.53,193.91 364.96,191.99 C363.68,187.72 362.89,183.62 362.44,179.00 C361.56,169.95 361.00,167.58 359.56,166.77 C358.51,166.18 358.00,164.44 358.00,161.39 C358.00,158.91 358.41,157.13 358.90,157.44 C359.40,157.75 360.01,155.86 360.27,153.25 C360.76,148.17 361.54,144.56 362.45,143.07 C362.77,142.57 363.18,140.78 363.38,139.09 C363.98,133.94 358.99,131.50 355.16,135.07 C352.97,137.10 352.62,138.08 352.95,141.26 C353.05,142.22 352.44,143.70 351.61,144.54 C350.77,145.37 350.34,146.72 350.65,147.53 C350.96,148.34 350.75,149.00 350.18,149.00 C348.82,149.00 345.51,157.94 343.46,167.16 C342.56,171.20 341.56,175.62 341.24,177.00 C340.92,178.38 340.63,179.80 340.58,180.17 C340.54,180.53 340.16,181.17 339.75,181.58 C338.70,182.63 338.84,188.20 339.96,189.97 C340.54,190.89 340.53,191.67 339.93,192.04 C339.40,192.37 338.71,199.58 338.40,208.07 C338.10,216.56 337.67,224.06 337.45,224.75 C337.24,225.44 337.53,226.00 338.11,226.00 C338.68,226.00 339.07,227.46 338.98,229.25 C338.70,234.22 338.84,234.61 341.25,235.88 C342.49,236.53 342.74,236.85 341.82,236.59 C340.60,236.25 339.96,236.92 339.49,239.03 C339.14,240.64 339.09,242.33 339.37,242.80 C339.96,243.74 340.75,247.16 342.02,254.25 C342.49,256.86 343.17,259.47 343.54,260.06 C343.90,260.64 344.42,262.54 344.69,264.27 C345.43,268.99 349.00,278.00 350.13,278.00 C350.67,278.00 350.82,278.48 350.46,279.06 C348.98,281.46 366.22,312.74 374.40,322.50 C375.78,324.15 377.72,326.54 378.71,327.82 C381.32,331.20 391.88,341.79 397.84,347.00 C400.67,349.48 404.12,352.50 405.51,353.72 C406.90,354.94 410.16,357.17 412.77,358.67 C415.37,360.17 417.73,361.68 418.00,362.03 C419.33,363.69 426.43,367.85 427.17,367.40 C427.63,367.11 428.00,367.39 428.00,368.00 C428.00,368.61 428.45,368.84 429.00,368.50 C429.55,368.16 430.00,368.39 430.00,369.00 C430.00,369.61 430.42,369.86 430.94,369.54 C431.45,369.22 432.24,369.58 432.69,370.35 C433.78,372.22 441.57,376.10 442.46,375.21 C442.85,374.82 443.69,375.19 444.33,376.03 C446.49,378.84 469.00,391.94 469.00,390.38 C469.00,390.02 470.21,390.94 471.70,392.42 C473.18,393.90 475.65,395.86 477.20,396.77 C478.74,397.69 480.00,398.72 480.00,399.07 C480.00,399.42 481.39,401.16 483.09,402.94 C484.79,404.71 487.79,409.56 489.76,413.71 C492.97,420.47 493.39,422.31 493.80,431.53 C494.05,437.19 493.93,444.42 493.53,447.61 C492.91,452.55 492.26,453.91 489.15,456.77 C487.14,458.62 483.39,461.33 480.82,462.78 C478.25,464.24 476.36,465.78 476.63,466.21 C477.08,466.93 475.58,467.41 473.75,467.12 C473.34,467.05 473.00,467.67 473.00,468.50 C473.00,469.49 472.01,470.00 470.05,470.00 C466.79,470.00 462.00,471.86 462.00,473.13 C462.00,473.57 461.38,473.70 460.63,473.41 C459.87,473.12 458.52,473.62 457.62,474.52 C456.72,475.42 455.42,475.97 454.74,475.73 C454.06,475.50 451.02,476.17 448.00,477.22 C444.98,478.28 441.63,479.32 440.57,479.55 C439.51,479.77 438.35,480.43 438.00,481.01 C437.64,481.58 436.03,482.01 434.42,481.96 C432.82,481.91 430.15,482.13 428.50,482.46 C426.30,482.89 385.75,483.29 371.37,483.02 C370.75,483.01 368.06,479.41 365.39,475.02 C362.71,470.62 360.02,466.84 359.40,466.60 C357.95,466.04 353.66,468.24 353.95,469.39 C354.07,469.88 353.75,470.55 353.24,470.89 C352.73,471.22 350.40,474.31 348.07,477.74 C344.27,483.35 340.41,487.59 342.48,483.90 C342.91,483.13 341.26,484.52 338.81,487.00 C336.37,489.48 331.55,493.08 328.11,495.00 C324.68,496.92 321.27,499.04 320.55,499.70 C319.83,500.36 318.96,500.63 318.62,500.29 C318.28,499.95 318.00,500.16 318.00,500.77 C318.00,501.38 317.21,501.86 316.25,501.84 C314.10,501.80 310.83,502.56 306.10,504.18 C302.01,505.58 301.55,505.70 299.57,505.88 C298.79,505.94 297.55,506.58 296.82,507.30 C296.06,508.05 293.10,508.61 289.82,508.62 C283.22,508.65 280.51,510.22 282.06,513.10 C282.61,514.15 282.76,515.00 282.38,515.00 C282.00,515.00 282.49,515.89 283.48,516.98 C284.46,518.06 285.64,518.72 286.10,518.44 C286.55,518.16 289.71,518.65 293.12,519.53 C296.52,520.41 300.47,521.29 301.90,521.48 C305.72,521.98 323.78,528.70 327.50,531.00 C329.25,532.08 330.91,532.76 331.17,532.50 C331.61,532.05 348.35,548.25 350.50,551.20 C351.05,551.96 351.65,553.24 351.83,554.04 C352.24,555.86 355.16,559.18 355.79,558.54 C356.05,558.28 357.10,558.52 358.13,559.07 C359.43,559.76 360.00,559.73 360.00,558.98 C360.00,558.37 360.41,558.13 360.90,558.44 C361.40,558.75 362.29,557.61 362.88,555.91 C364.58,551.03 370.71,543.36 373.99,542.00 C375.65,541.32 377.00,540.36 377.00,539.88 C377.00,539.39 397.66,539.00 424.00,539.00 C454.67,539.00 471.00,539.35 471.00,540.00 C471.00,540.55 473.31,541.00 476.14,541.00 C482.31,541.00 483.92,542.59 483.97,548.72 C483.99,552.05 484.32,552.82 485.50,552.36 C486.72,551.89 487.00,552.82 487.00,557.39 L 487.00 563.00 L 455.00 563.00 C432.69,563.00 423.00,563.33 423.00,564.08 C423.00,564.68 422.44,564.96 421.75,564.72 C420.36,564.21 415.00,566.99 415.00,568.22 C415.00,568.65 414.37,569.00 413.61,569.00 C412.26,569.00 388.02,582.73 387.00,584.07 C386.73,584.43 385.51,585.04 384.30,585.42 C383.09,585.79 381.84,586.93 381.52,587.95 C381.19,588.97 379.87,590.07 378.57,590.39 C375.06,591.28 374.65,593.71 377.60,596.28 C379.01,597.50 380.41,598.35 380.72,598.16 C381.03,597.98 381.57,598.30 381.93,598.88 C382.80,600.30 403.14,612.00 404.73,612.00 C405.43,612.00 406.00,612.39 406.00,612.86 C406.00,613.33 408.65,615.13 411.89,616.86 L 417.78 620.00 L 449.69 620.00 C473.18,620.00 481.92,620.32 482.80,621.20 C483.58,621.98 484.00,626.00 484.00,632.59 C484.00,641.25 483.74,642.88 482.31,643.44 C481.38,643.79 466.41,644.25 449.06,644.45 C416.33,644.82 413.17,645.06 411.50,647.34 C410.52,648.67 409.86,649.00 408.13,649.00 C407.66,649.00 406.03,650.86 404.53,653.14 C403.02,655.42 400.60,658.38 399.14,659.72 C397.69,661.06 397.14,661.82 397.93,661.41 C398.71,661.00 396.91,662.99 393.93,665.83 C390.94,668.67 387.68,671.78 386.68,672.74 C385.68,673.71 384.55,674.52 384.18,674.55 C382.16,674.70 379.00,676.27 379.00,677.13 C379.00,677.67 378.59,677.86 378.08,677.55 C377.57,677.24 376.45,677.69 375.59,678.55 C374.72,679.42 373.60,679.87 373.09,679.55 C372.58,679.24 371.47,679.67 370.63,680.51 C369.79,681.35 368.75,681.97 368.30,681.90 C366.26,681.55 364.03,682.11 362.82,683.26 C362.09,683.96 360.38,684.60 359.00,684.69 C356.27,684.87 351.86,685.77 351.51,686.22 C351.39,686.37 350.79,687.40 350.18,688.50 C349.20,690.24 349.06,690.27 349.03,688.75 C348.98,686.00 341.59,686.10 338.71,688.89 C337.00,690.56 337.03,690.74 339.42,693.31 C340.78,694.79 342.34,696.00 342.87,696.00 C343.40,696.00 344.10,696.56 344.42,697.25 C344.88,698.25 345.12,698.25 345.59,697.24 C345.91,696.55 346.62,696.26 347.16,696.60 C348.73,697.57 353.48,697.87 369.34,698.00 C382.60,698.11 384.33,697.93 385.51,696.31 C386.77,694.59 386.93,694.61 388.79,696.75 L 390.73 699.00 L 434.78 699.00 C466.78,699.00 478.94,698.69 479.21,697.86 C479.48,697.06 480.23,697.12 481.80,698.10 C483.89,699.42 484.00,700.14 484.00,713.24 C484.00,724.80 484.24,727.00 485.50,727.00 C486.72,727.00 487.00,728.66 487.00,735.93 C487.00,743.99 486.80,744.93 485.00,745.50 C483.90,745.85 482.99,746.67 482.98,747.32 C482.97,747.97 482.95,759.90 482.95,773.84 C482.95,796.92 482.77,799.52 481.01,802.98 C478.14,808.60 467.12,819.07 457.53,825.28 C452.88,828.29 449.39,831.06 449.76,831.43 C450.13,831.80 449.73,831.83 448.85,831.50 C446.93,830.76 440.86,836.46 441.58,838.34 C442.25,840.09 447.23,842.83 448.75,842.28 C449.44,842.04 450.26,842.50 450.57,843.33 C450.89,844.15 452.57,845.40 454.32,846.12 C456.07,846.83 458.01,847.88 458.64,848.46 C459.27,849.03 461.07,850.40 462.64,851.50 C467.45,854.86 482.57,870.71 484.57,874.49 C485.15,875.59 487.69,880.33 490.19,885.00 C496.24,896.27 501.34,908.76 504.53,920.12 C505.97,925.22 507.58,930.21 508.11,931.20 C508.64,932.19 509.26,934.68 509.49,936.75 C511.11,950.95 511.93,955.16 513.60,957.75 Z" fill="rgba(0,0,0,1)"/>
    <path d="M 358.78 165.96 C358.99,166.33 359.25,166.60 359.56,166.77 C361.00,167.58 361.56,169.95 362.44,179.00 C362.89,183.62 363.68,187.72 364.96,191.99 C365.53,193.91 366.00,196.98 366.00,198.81 C366.00,200.65 366.66,202.80 367.46,203.60 C368.26,204.40 368.64,205.77 368.31,206.63 C367.98,207.49 368.17,208.49 368.73,208.85 C369.29,209.21 371.19,213.10 372.95,217.50 C377.93,229.99 391.82,252.82 398.50,259.50 C399.60,260.60 401.31,262.76 402.30,264.29 C403.29,265.83 405.21,267.51 406.55,268.02 C407.90,268.53 409.00,269.21 409.00,269.53 C409.00,269.86 408.44,269.82 407.75,269.45 C407.06,269.09 408.75,270.98 411.50,273.66 C414.25,276.34 416.81,278.41 417.18,278.25 C417.56,278.09 419.08,279.10 420.58,280.48 C422.07,281.87 423.59,283.00 423.96,283.00 C424.32,283.00 425.50,283.79 426.56,284.77 C427.63,285.74 430.97,288.10 433.99,290.02 C437.01,291.93 440.29,294.30 441.28,295.29 C442.27,296.27 443.51,296.80 444.04,296.48 C444.57,296.15 445.00,296.39 445.00,297.00 C445.00,297.61 445.44,297.85 445.97,297.52 C447.01,296.88 453.09,299.65 454.11,301.22 C454.45,301.75 454.90,302.06 455.11,301.92 C455.99,301.36 466.00,305.24 466.00,306.14 C466.00,306.68 466.35,306.90 466.77,306.64 C467.19,306.38 471.36,307.30 476.02,308.69 C480.68,310.07 486.16,311.42 488.18,311.69 C491.49,312.12 492.02,311.86 493.46,309.09 C494.33,307.39 495.54,306.00 496.13,306.00 C496.73,306.00 496.96,305.35 496.66,304.55 C496.10,303.10 500.28,291.63 502.22,289.25 C502.78,288.56 503.00,288.00 502.69,288.00 C502.39,288.00 502.58,286.54 503.12,284.75 C503.67,282.96 504.28,280.38 504.48,279.00 C504.68,277.62 505.37,275.15 506.01,273.50 C506.65,271.85 507.36,269.71 507.59,268.75 C507.81,267.79 508.27,265.99 508.60,264.75 C508.93,263.51 509.35,261.38 509.53,260.00 C509.90,257.06 510.83,250.77 511.53,246.42 C512.24,242.00 516.24,238.76 519.47,239.99 C521.13,240.62 521.77,241.45 521.37,242.47 C521.05,243.31 521.20,244.00 521.71,244.00 C522.22,244.00 522.70,245.91 522.77,248.25 C522.91,253.05 523.34,256.35 524.31,260.00 C524.68,261.38 525.19,263.79 525.45,265.37 C525.70,266.95 526.14,268.47 526.42,268.75 C526.70,269.03 526.50,270.07 525.97,271.06 C525.28,272.35 525.43,273.29 526.51,274.37 C528.68,276.54 531.84,287.39 531.23,290.59 C530.86,292.53 531.25,293.70 532.60,294.68 C533.65,295.43 535.87,299.52 537.54,303.77 L 540.58 311.50 L 545.04 311.61 C547.49,311.67 550.24,311.34 551.14,310.88 C552.04,310.42 554.29,309.85 556.14,309.61 C557.99,309.38 562.53,308.08 566.22,306.72 C569.92,305.37 574.03,304.47 575.35,304.73 C576.89,305.02 578.42,304.48 579.62,303.22 C581.64,301.11 588.00,297.56 588.00,298.55 C588.00,298.87 588.71,298.43 589.58,297.56 C590.45,296.69 591.57,296.24 592.08,296.55 C592.59,296.86 593.00,296.74 593.00,296.27 C593.00,295.81 595.81,293.75 599.25,291.70 C606.83,287.19 609.03,285.81 610.68,284.50 C611.38,283.95 613.76,282.15 615.98,280.50 C620.60,277.06 638.00,260.24 638.01,259.19 C638.01,258.81 639.49,256.92 641.30,255.00 C643.10,253.07 645.62,249.80 646.89,247.72 C648.16,245.65 649.71,243.40 650.35,242.72 C650.98,242.05 653.72,237.23 656.42,232.00 C659.13,226.77 661.83,222.17 662.42,221.77 C663.02,221.36 663.13,221.02 662.68,221.02 C662.23,221.01 662.57,220.29 663.44,219.42 C664.31,218.55 664.79,217.47 664.52,217.03 C664.24,216.58 664.73,214.25 665.60,211.86 C667.74,205.98 671.10,194.96 671.50,192.50 C671.67,191.40 672.11,189.15 672.47,187.50 C674.61,177.67 675.93,149.65 674.33,148.16 C672.99,146.91 673.62,143.56 675.50,142.00 C676.43,141.23 677.17,141.31 678.15,142.30 C678.90,143.05 680.02,143.49 680.64,143.29 C682.45,142.68 685.00,145.92 685.00,148.82 C685.00,150.29 685.89,153.83 686.97,156.67 C688.05,159.52 689.15,162.89 689.42,164.17 C690.10,167.48 690.76,170.05 691.79,173.50 C692.29,175.15 692.50,177.07 692.26,177.77 C692.02,178.46 692.65,181.61 693.66,184.77 C695.23,189.67 695.48,193.62 695.36,212.00 C695.22,234.44 695.06,236.71 693.08,243.85 C692.41,246.24 692.11,248.44 692.39,248.73 C692.68,249.02 692.26,250.83 691.46,252.76 C690.65,254.69 689.78,257.90 689.53,259.88 C688.78,265.71 681.46,286.00 680.10,286.00 C679.73,286.00 679.36,286.86 679.28,287.91 C679.02,291.42 663.24,317.68 657.91,323.50 C656.90,324.60 654.82,327.01 653.29,328.85 C649.45,333.47 636.74,346.07 633.46,348.50 C631.98,349.60 629.59,351.50 628.14,352.72 C620.19,359.42 615.62,362.76 611.31,365.00 C608.66,366.38 606.28,367.78 606.00,368.12 C605.07,369.27 597.00,373.04 597.00,372.33 C597.00,371.94 596.08,372.61 594.96,373.81 C593.84,375.02 592.26,376.06 591.46,376.12 C588.33,376.39 587.90,376.53 587.21,377.52 C586.82,378.08 583.58,380.43 580.00,382.73 C576.42,385.04 571.70,388.73 569.50,390.93 C567.30,393.13 565.01,394.95 564.40,394.97 C563.17,395.00 559.26,399.00 560.47,399.00 C560.90,399.00 560.69,399.67 560.01,400.49 C559.33,401.31 558.36,401.72 557.86,401.41 C557.36,401.10 557.07,401.28 557.23,401.81 C557.38,402.33 556.37,403.83 554.99,405.13 C552.70,407.29 548.22,416.11 546.52,421.79 C546.15,423.05 545.83,430.02 545.81,437.29 C545.78,452.36 546.92,456.41 552.23,460.12 C554.03,461.38 555.82,462.88 556.21,463.45 C556.61,464.03 557.39,464.56 557.96,464.62 C558.53,464.69 559.39,464.81 559.86,464.88 C560.34,464.94 561.83,466.10 563.18,467.45 C564.53,468.80 566.50,469.87 567.57,469.83 C570.00,469.75 594.27,478.99 595.17,480.34 C595.53,480.89 598.82,481.48 602.47,481.65 C606.13,481.82 609.61,482.26 610.21,482.63 C611.76,483.59 615.90,484.13 620.00,483.93 C621.92,483.83 630.03,483.69 638.00,483.63 L 652.50 483.51 L 656.19 479.74 C658.22,477.66 660.16,475.07 660.51,473.97 C660.86,472.87 661.56,472.23 662.08,472.55 C662.59,472.87 663.28,472.42 663.61,471.56 C663.94,470.70 664.65,470.00 665.18,470.00 C665.71,470.00 666.80,469.34 667.60,468.54 C669.83,466.31 671.18,467.44 675.10,474.77 C677.07,478.47 679.77,482.05 681.10,482.71 C682.42,483.38 684.17,484.74 685.00,485.74 C685.83,486.73 688.30,488.89 690.50,490.52 C692.70,492.15 694.72,493.73 695.00,494.02 C695.28,494.32 697.41,495.40 699.75,496.43 C702.09,497.46 704.00,498.71 704.00,499.21 C704.00,499.71 704.40,499.87 704.90,499.56 C705.39,499.26 706.04,499.66 706.34,500.45 C706.64,501.24 707.70,501.87 708.70,501.85 C711.19,501.81 714.92,502.70 720.11,504.57 C722.52,505.44 725.30,506.32 726.27,506.52 C727.24,506.73 728.72,507.57 729.55,508.41 C730.72,509.58 731.67,509.69 733.71,508.92 C736.32,507.93 741.92,508.54 742.08,509.83 C742.84,516.12 741.47,519.50 738.59,518.40 C737.85,518.11 734.42,518.61 730.97,519.51 C727.52,520.40 723.53,521.30 722.10,521.51 C720.67,521.72 717.24,522.73 714.48,523.77 C711.73,524.81 708.91,525.47 708.23,525.24 C707.56,525.02 707.00,525.35 707.00,525.98 C707.00,526.60 706.55,526.84 706.00,526.50 C705.45,526.16 705.00,526.41 705.00,527.05 C705.00,527.69 704.34,527.96 703.53,527.65 C702.72,527.34 701.70,527.67 701.28,528.38 C700.85,529.10 698.25,530.98 695.50,532.57 C686.00,538.07 677.35,546.74 673.97,554.17 C673.10,556.07 672.10,556.68 669.98,556.59 C669.34,556.57 668.69,556.49 668.12,556.37 C668.99,555.27 670.70,552.84 672.55,550.03 C683.21,533.84 703.13,522.05 728.50,516.90 C734.55,515.68 739.88,514.34 740.34,513.94 C740.81,513.54 738.87,512.89 736.03,512.50 C727.68,511.36 709.50,505.36 701.20,501.02 C686.90,493.55 675.08,482.85 670.83,473.54 C669.14,469.82 666.80,470.43 664.23,475.25 C662.98,477.59 660.44,481.30 658.58,483.50 L 655.20 487.50 L 610.50 487.50 L 596.23 483.21 C575.36,476.93 560.53,470.28 549.50,462.25 C543.92,458.19 542.00,451.64 542.00,436.62 C542.00,416.21 548.28,404.54 568.50,387.35 C575.74,381.20 578.96,379.17 594.50,371.01 C613.77,360.90 624.99,352.94 638.83,339.58 C657.67,321.38 672.97,298.41 681.47,275.57 C696.04,236.41 696.91,195.57 683.97,157.75 C682.89,154.58 682.00,151.06 682.00,149.93 C682.00,147.39 680.27,144.00 678.96,144.00 C678.39,144.00 678.00,150.13 678.00,159.28 C678.00,185.69 674.89,201.50 665.69,221.84 C647.11,262.94 615.52,292.70 573.93,308.26 C562.75,312.44 543.41,317.27 540.95,316.48 C536.14,314.96 522.84,273.98 519.93,251.74 C519.14,245.73 518.21,242.00 517.49,242.00 C516.79,242.00 515.64,246.23 514.58,252.70 C513.63,258.58 511.50,268.60 509.87,274.95 C505.31,292.66 496.44,315.51 493.71,316.56 C491.98,317.22 476.22,313.06 465.26,309.05 C410.25,288.91 368.96,240.23 360.37,185.39 C359.60,180.49 359.05,173.26 358.78,165.96 ZM 486.79 553.34 C486.59,552.28 486.20,552.09 485.50,552.36 C484.32,552.82 483.99,552.05 483.97,548.72 C483.92,542.59 482.31,541.00 476.14,541.00 C473.31,541.00 471.00,540.55 471.00,540.00 C471.00,539.35 454.67,539.00 424.00,539.00 C397.66,539.00 377.00,539.39 377.00,539.88 C377.00,540.36 375.65,541.32 373.99,542.00 C370.71,543.36 364.58,551.03 362.88,555.91 C362.29,557.61 361.40,558.75 360.90,558.44 C360.41,558.13 360.00,558.37 360.00,558.98 C360.00,559.73 359.43,559.76 358.13,559.07 C357.10,558.52 356.05,558.28 355.79,558.54 C355.16,559.18 352.24,555.86 351.83,554.04 C351.65,553.24 351.05,551.96 350.50,551.20 C348.35,548.25 331.61,532.05 331.17,532.50 C330.91,532.76 329.25,532.08 327.50,531.00 C323.78,528.70 305.72,521.98 301.90,521.48 C300.47,521.29 296.52,520.41 293.12,519.53 C289.71,518.65 286.55,518.16 286.10,518.44 C285.64,518.72 284.46,518.06 283.48,516.98 C282.49,515.89 282.00,515.00 282.38,515.00 C282.76,515.00 282.61,514.15 282.06,513.10 C280.51,510.22 283.22,508.65 289.82,508.62 C293.10,508.61 296.06,508.05 296.82,507.30 C297.55,506.58 298.79,505.94 299.57,505.88 C301.55,505.70 302.01,505.58 306.10,504.18 C310.83,502.56 314.10,501.80 316.25,501.84 C317.21,501.86 318.00,501.38 318.00,500.77 C318.00,500.16 318.28,499.95 318.62,500.29 C318.96,500.63 319.83,500.36 320.55,499.70 C321.27,499.04 324.68,496.92 328.11,495.00 C331.55,493.08 336.37,489.48 338.81,487.00 C341.26,484.52 342.91,483.13 342.48,483.90 C340.41,487.59 344.27,483.35 348.07,477.74 C350.40,474.31 352.73,471.22 353.24,470.89 C353.75,470.55 354.07,469.88 353.95,469.39 C353.66,468.24 357.95,466.04 359.40,466.60 C360.02,466.84 362.71,470.62 365.39,475.02 C368.06,479.41 370.75,483.01 371.37,483.02 C385.75,483.29 426.30,482.89 428.50,482.46 C430.15,482.13 432.82,481.91 434.42,481.96 C436.03,482.01 437.64,481.58 438.00,481.01 C438.35,480.43 439.51,479.77 440.57,479.55 C441.63,479.32 444.98,478.28 448.00,477.22 C451.02,476.17 454.06,475.50 454.74,475.73 C455.42,475.97 456.72,475.42 457.62,474.52 C458.52,473.62 459.87,473.12 460.63,473.41 C461.38,473.70 462.00,473.57 462.00,473.13 C462.00,471.86 466.79,470.00 470.05,470.00 C472.01,470.00 473.00,469.49 473.00,468.50 C473.00,467.67 473.34,467.05 473.75,467.12 C475.58,467.41 477.08,466.93 476.63,466.21 C476.36,465.78 478.25,464.24 480.82,462.78 C483.39,461.33 487.14,458.62 489.15,456.77 C492.26,453.91 492.91,452.55 493.53,447.61 C493.93,444.42 494.05,437.19 493.80,431.53 C493.39,422.31 492.97,420.47 489.76,413.71 C487.79,409.56 484.79,404.71 483.09,402.94 C481.39,401.16 480.00,399.42 480.00,399.07 C480.00,398.72 478.74,397.69 477.20,396.77 C475.65,395.86 473.18,393.90 471.70,392.42 C470.21,390.94 469.00,390.02 469.00,390.38 C469.00,391.94 446.49,378.84 444.33,376.03 C443.69,375.19 442.85,374.82 442.46,375.21 C441.57,376.10 433.78,372.22 432.69,370.35 C432.24,369.58 431.45,369.22 430.94,369.54 C430.42,369.86 430.00,369.61 430.00,369.00 C430.00,368.39 429.55,368.16 429.00,368.50 C428.45,368.84 428.00,368.61 428.00,368.00 C428.00,367.39 427.63,367.11 427.17,367.40 C426.43,367.85 419.33,363.69 418.00,362.03 C417.73,361.68 415.37,360.17 412.77,358.67 C410.16,357.17 406.90,354.94 405.51,353.72 C404.12,352.50 400.67,349.48 397.84,347.00 C391.88,341.79 381.32,331.20 378.71,327.82 C377.72,326.54 375.78,324.15 374.40,322.50 C366.22,312.74 348.98,281.46 350.46,279.06 C350.82,278.48 350.67,278.00 350.13,278.00 C349.00,278.00 345.43,268.99 344.69,264.27 C344.42,262.54 343.90,260.64 343.54,260.06 C343.17,259.47 342.49,256.86 342.02,254.25 C340.75,247.16 339.96,243.74 339.37,242.80 C339.09,242.33 339.14,240.64 339.49,239.03 C339.96,236.92 340.60,236.25 341.82,236.59 C342.74,236.85 342.49,236.53 341.25,235.88 C338.84,234.61 338.70,234.22 338.98,229.25 C339.07,227.46 338.68,226.00 338.11,226.00 C337.53,226.00 337.24,225.44 337.45,224.75 C337.67,224.06 338.10,216.56 338.40,208.07 C338.71,199.58 339.40,192.37 339.93,192.04 C340.53,191.67 340.54,190.89 339.96,189.97 C338.84,188.20 338.70,182.63 339.75,181.58 C340.16,181.17 340.54,180.53 340.58,180.17 C340.63,179.80 340.92,178.38 341.24,177.00 C341.56,175.62 342.56,171.20 343.46,167.16 C345.51,157.94 348.82,149.00 350.18,149.00 C350.75,149.00 350.96,148.34 350.65,147.53 C350.34,146.72 350.77,145.37 351.61,144.54 C352.44,143.70 353.05,142.22 352.95,141.26 C352.62,138.08 352.97,137.10 355.16,135.07 C358.99,131.50 363.98,133.94 363.38,139.09 C363.18,140.78 362.77,142.57 362.45,143.07 C361.54,144.56 360.76,148.17 360.27,153.25 C360.01,155.86 359.40,157.75 358.90,157.44 C358.79,157.37 358.68,157.41 358.58,157.54 C358.52,150.43 358.76,144.17 359.36,141.13 C360.47,135.47 358.17,135.79 356.17,141.58 C355.42,143.74 353.78,148.20 352.53,151.50 C348.94,160.97 345.13,176.10 343.39,187.77 C342.15,196.03 341.91,202.99 342.33,218.00 C342.96,240.55 343.20,242.58 347.18,257.99 C355.32,289.50 373.01,319.39 396.15,340.74 C409.38,352.95 420.39,360.50 441.00,371.48 C467.41,385.55 478.02,392.28 484.23,398.91 C490.88,406.01 496.25,416.06 498.07,424.81 C499.61,432.23 498.80,448.37 496.63,453.57 C494.54,458.57 488.61,463.25 475.84,469.97 C465.30,475.52 451.94,480.60 437.29,484.62 C428.03,487.16 426.01,487.33 400.15,487.75 L 372.80 488.19 L 367.63 482.85 C364.78,479.91 361.66,475.81 360.68,473.75 C359.71,471.69 358.50,470.00 358.00,470.00 C357.50,470.00 356.30,471.68 355.32,473.73 C352.92,478.80 340.82,491.37 333.67,496.22 C330.47,498.40 325.31,501.30 322.21,502.67 C315.12,505.81 296.03,511.60 289.75,512.53 C287.14,512.91 285.00,513.54 285.00,513.91 C285.00,514.29 289.39,515.41 294.75,516.41 C307.07,518.70 324.15,524.75 332.26,529.69 C340.14,534.50 352.91,547.22 355.40,552.77 C356.45,555.10 357.66,557.00 358.11,557.00 C358.55,557.00 359.77,555.06 360.81,552.69 C361.86,550.31 365.06,546.04 367.91,543.19 L 373.10 538.00 L 428.36 538.00 C471.20,538.00 484.00,538.28 485.34,539.26 C486.82,540.34 487.02,542.13 486.79,553.34 ZM 513.60 957.75 C511.93,955.16 511.11,950.95 509.49,936.75 C509.26,934.68 508.64,932.19 508.11,931.20 C507.58,930.21 505.97,925.22 504.53,920.12 C501.34,908.76 496.24,896.27 490.19,885.00 C487.69,880.33 485.15,875.59 484.57,874.49 C482.57,870.71 467.45,854.86 462.64,851.50 C461.07,850.40 459.27,849.03 458.64,848.46 C458.01,847.88 456.07,846.83 454.32,846.12 C452.57,845.40 450.89,844.15 450.57,843.33 C450.26,842.50 449.44,842.04 448.75,842.28 C447.23,842.83 442.25,840.09 441.58,838.34 C440.86,836.46 446.93,830.76 448.85,831.50 C449.73,831.83 450.13,831.80 449.76,831.43 C449.39,831.06 452.88,828.29 457.53,825.28 C467.12,819.07 478.14,808.60 481.01,802.98 C482.77,799.52 482.95,796.92 482.95,773.84 C482.95,759.90 482.97,747.97 482.98,747.32 C482.99,746.67 483.90,745.85 485.00,745.50 C485.79,745.25 486.27,744.93 486.56,743.97 C486.54,746.06 486.51,748.24 486.49,750.51 C485.96,794.96 485.65,802.79 484.29,805.42 C480.45,812.90 461.15,829.15 449.53,834.69 C447.59,835.61 446.01,836.85 446.02,837.44 C446.03,838.02 448.61,839.62 451.76,840.98 C459.09,844.16 471.30,853.35 478.00,860.74 C495.29,879.83 508.42,909.94 514.20,943.76 C515.45,951.07 516.91,956.86 517.45,956.68 C517.99,956.50 519.20,951.44 520.14,945.43 C525.59,910.55 541.15,875.71 559.35,857.62 C565.20,851.81 575.48,844.29 582.24,840.88 C587.39,838.28 589.64,836.00 587.05,836.00 C586.53,836.00 581.46,832.89 575.79,829.10 C563.60,820.95 549.68,807.11 548.17,801.65 C547.60,799.57 547.39,789.82 547.67,778.29 C547.94,767.41 547.74,745.00 547.22,728.50 C546.42,703.15 546.50,698.06 547.71,695.67 C548.75,693.60 549.59,693.03 550.82,693.55 C552.90,694.44 606.45,695.15 643.26,695.13 C643.12,695.29 643.38,695.60 644.00,696.00 C645.28,696.83 645.25,696.97 643.75,696.98 C642.79,696.99 642.00,697.45 642.00,698.00 C642.00,698.65 630.17,699.00 608.50,699.00 C585.31,699.00 575.00,698.67 575.00,697.93 C575.00,696.81 551.35,697.31 550.21,698.46 C549.19,699.48 549.05,706.00 550.05,706.00 C550.67,706.00 550.87,714.78 550.59,729.75 C550.36,742.81 550.13,758.14 550.08,763.81 C550.03,770.41 549.64,773.90 549.00,773.50 C548.40,773.13 548.00,774.34 548.00,776.50 C548.00,778.49 548.41,779.87 548.91,779.56 C549.70,779.07 551.53,795.85 550.97,798.50 C550.50,800.74 551.21,802.02 555.75,807.09 C558.36,810.01 559.83,812.04 559.00,811.61 C557.01,810.57 564.78,817.56 571.71,823.04 C572.37,823.57 573.33,824.00 573.84,824.00 C574.35,824.00 576.17,825.44 577.88,827.19 C579.60,828.94 581.00,830.06 581.00,829.66 C581.00,828.63 586.77,831.77 589.05,834.05 C590.12,835.12 591.00,836.51 591.00,837.14 C591.00,838.84 586.01,843.12 584.85,842.41 C584.30,842.07 582.97,842.73 581.89,843.88 C580.82,845.04 578.49,846.72 576.72,847.62 C574.95,848.52 572.77,849.98 571.88,850.88 C571.00,851.77 569.23,853.17 567.97,854.00 C565.00,855.93 559.03,861.42 561.00,860.39 C562.30,859.72 562.31,859.85 561.11,861.33 C560.34,862.28 559.50,862.83 559.23,862.56 C558.34,861.67 544.52,881.79 540.91,889.25 C539.64,891.86 538.21,894.00 537.74,894.00 C537.27,894.00 537.13,894.40 537.43,894.89 C538.13,896.01 534.03,906.00 532.88,906.00 C532.41,906.00 532.09,907.01 532.16,908.25 C532.30,910.41 529.40,921.42 528.16,923.50 C527.83,924.05 527.46,924.95 527.34,925.50 C526.32,930.13 526.04,931.12 525.55,931.93 C524.76,933.20 524.02,938.28 523.43,946.46 C523.16,950.29 522.40,953.75 521.75,954.16 C521.09,954.56 520.88,955.22 521.28,955.61 C522.34,956.67 518.99,960.00 516.87,960.00 C515.87,960.00 514.39,958.99 513.60,957.75 ZM 666.79 555.98 C666.62,555.90 666.49,555.82 666.41,555.74 C666.00,555.33 664.85,555.00 663.86,555.00 C662.82,555.00 661.37,553.63 660.45,551.75 C658.27,547.34 651.09,541.00 648.29,541.00 C647.03,541.00 646.00,540.55 646.00,540.00 C646.00,539.35 630.33,539.00 601.00,539.00 C573.91,539.00 556.00,539.37 556.00,539.93 C556.00,540.44 554.99,541.00 553.75,541.18 C551.99,541.43 551.43,542.26 551.17,544.99 C550.99,546.91 550.34,548.79 549.73,549.17 C548.92,549.67 548.94,550.57 549.81,552.48 C550.46,553.92 551.00,556.87 551.00,559.05 L 551.00 563.00 L 583.00 563.00 C603.67,563.00 615.00,563.35 615.00,564.00 C615.00,564.55 615.96,565.00 617.13,565.00 C618.96,565.00 625.46,568.26 627.00,569.95 C627.28,570.25 630.31,571.97 633.73,573.78 C637.15,575.58 641.17,578.18 642.65,579.55 C644.13,580.93 645.83,581.87 646.42,581.66 C647.69,581.20 653.00,584.07 653.00,585.22 C653.00,585.65 653.64,586.00 654.43,586.00 C655.21,586.00 656.56,586.71 657.43,587.57 C658.29,588.44 659.00,588.82 659.00,588.42 C659.00,588.02 659.90,588.50 661.00,589.50 C662.10,590.50 663.00,592.07 663.00,593.00 C663.00,595.15 659.96,597.93 656.99,598.50 C655.73,598.74 653.85,599.86 652.81,600.97 C651.77,602.09 649.25,603.86 647.21,604.92 C645.17,605.97 639.71,609.10 635.08,611.87 C630.44,614.64 626.28,616.67 625.83,616.39 C625.37,616.11 625.00,616.25 625.00,616.70 C625.00,617.15 624.04,618.12 622.87,618.85 C621.20,619.89 613.38,620.15 586.34,620.05 C558.03,619.94 550.77,619.81 549.35,622.62 C548.81,623.69 549.12,625.19 549.43,627.28 C549.78,629.60 550.29,633.53 550.57,636.00 C550.93,639.18 550.76,641.18 551.65,642.44 C553.41,644.94 559.32,644.52 581.71,644.59 C598.09,644.63 613.11,644.89 615.08,645.16 C619.45,645.76 623.31,648.50 625.41,652.50 C631.75,664.61 635.36,670.00 637.12,670.00 C637.96,670.00 649.53,677.14 651.76,679.03 C652.46,679.62 653.39,679.88 653.84,679.60 C654.66,679.09 667.06,683.72 668.00,684.88 C668.28,685.22 669.40,685.50 670.50,685.50 C671.61,685.50 672.94,686.50 673.49,687.75 C673.79,688.45 674.33,689.00 674.95,689.38 C664.31,687.11 651.56,682.68 645.01,678.77 C634.89,672.74 631.00,668.80 625.39,658.90 L 619.83 649.07 L 584.83 648.79 C551.52,648.51 549.77,648.41 548.42,646.56 C547.36,645.10 547.00,641.15 547.00,630.79 L 547.00 616.96 L 583.33 617.02 L 619.67 617.09 L 639.83 605.45 C650.92,599.04 659.99,593.51 659.98,593.15 C659.95,592.58 650.12,586.61 639.11,580.49 C637.13,579.38 631.40,576.12 626.38,573.24 L 617.26 568.00 L 547.22 568.00 L 547.07 556.34 C546.98,549.92 546.67,544.28 546.37,543.79 C546.07,543.31 546.55,541.81 547.44,540.46 L 549.05 538.00 L 653.40 538.00 L 658.35 543.25 C661.07,546.14 664.16,550.41 665.20,552.75 C665.77,554.04 666.35,555.20 666.79,555.98 ZM 386.60 695.14 C386.29,695.28 385.98,695.68 385.51,696.31 C384.33,697.93 382.60,698.11 369.34,698.00 C353.48,697.87 348.73,697.57 347.16,696.60 C346.62,696.26 345.91,696.55 345.59,697.24 C345.12,698.25 344.88,698.25 344.42,697.25 C344.10,696.56 343.40,696.00 342.87,696.00 C342.34,696.00 340.78,694.79 339.42,693.31 C337.03,690.74 337.00,690.56 338.71,688.89 C341.59,686.10 348.98,686.00 349.03,688.75 C349.06,690.27 349.20,690.24 350.18,688.50 C350.79,687.40 351.39,686.37 351.51,686.22 C351.86,685.77 356.27,684.87 359.00,684.69 C360.38,684.60 362.09,683.96 362.82,683.26 C364.03,682.11 366.26,681.55 368.30,681.90 C368.75,681.97 369.79,681.35 370.63,680.51 C371.47,679.67 372.58,679.24 373.09,679.55 C373.60,679.87 374.72,679.42 375.59,678.55 C376.45,677.69 377.57,677.24 378.08,677.55 C378.59,677.86 379.00,677.67 379.00,677.13 C379.00,676.27 382.16,674.70 384.18,674.55 C384.55,674.52 385.68,673.71 386.68,672.74 C387.68,671.78 390.94,668.67 393.93,665.83 C396.91,662.99 398.71,661.00 397.93,661.41 C397.14,661.82 397.69,661.06 399.14,659.72 C400.60,658.38 403.02,655.42 404.53,653.14 C406.03,650.86 407.66,649.00 408.13,649.00 C409.86,649.00 410.52,648.67 411.50,647.34 C413.17,645.06 416.33,644.82 449.06,644.45 C466.41,644.25 481.38,643.79 482.31,643.44 C483.74,642.88 484.00,641.25 484.00,632.59 C484.00,626.00 483.58,621.98 482.80,621.20 C481.92,620.32 473.18,620.00 449.69,620.00 L 417.78 620.00 L 411.89 616.86 C408.65,615.13 406.00,613.33 406.00,612.86 C406.00,612.39 405.43,612.00 404.73,612.00 C403.14,612.00 382.80,600.30 381.93,598.88 C381.57,598.30 381.03,597.98 380.72,598.16 C380.41,598.35 379.01,597.50 377.60,596.28 C374.65,593.71 375.06,591.28 378.57,590.39 C379.87,590.07 381.19,588.97 381.52,587.95 C381.84,586.93 383.09,585.79 384.30,585.42 C385.51,585.04 386.73,584.43 387.00,584.07 C388.02,582.73 412.26,569.00 413.61,569.00 C414.37,569.00 415.00,568.65 415.00,568.22 C415.00,566.99 420.36,564.21 421.75,564.72 C422.44,564.96 423.00,564.68 423.00,564.08 C423.00,563.33 432.69,563.00 455.00,563.00 L 486.59 563.00 L 486.50 567.50 L 420.50 568.50 L 413.84 572.50 C410.17,574.70 400.88,580.10 393.18,584.50 C383.04,590.30 379.46,592.83 380.16,593.68 C380.69,594.33 385.66,597.48 391.20,600.68 C396.75,603.88 403.35,607.74 405.89,609.26 C408.43,610.78 412.62,613.14 415.22,614.51 L 419.93 617.00 L 487.05 617.00 L 486.78 632.21 L 486.50 647.41 L 484.00 648.11 C482.62,648.49 466.79,648.85 448.81,648.90 C417.83,648.99 415.93,649.11 412.67,651.03 C410.77,652.15 408.06,654.82 406.64,656.97 C402.44,663.32 390.84,674.22 384.07,678.18 C376.68,682.50 355.00,689.68 346.69,690.55 C338.25,691.43 340.02,693.25 350.57,694.53 C353.81,694.92 368.31,695.11 386.60,695.14 ZM 486.71 728.76 C486.49,727.42 486.11,727.00 485.50,727.00 C484.24,727.00 484.00,724.80 484.00,713.24 C484.00,700.14 483.89,699.42 481.80,698.10 C480.23,697.12 479.48,697.06 479.21,697.86 C478.94,698.69 466.78,699.00 434.78,699.00 L 390.73 699.00 L 388.79 696.75 C387.99,695.83 387.50,695.31 387.11,695.14 C425.88,695.19 481.27,694.55 483.11,693.67 C486.28,692.14 486.97,695.09 486.71,728.76 ZM 677.82 689.95 C678.51,689.77 679.00,689.29 679.00,688.47 C679.00,687.34 679.92,687.00 682.50,687.17 C684.42,687.30 686.00,687.79 686.00,688.26 C686.00,688.73 686.40,688.87 686.90,688.56 C688.92,687.31 688.71,691.02 686.63,693.26 C683.05,697.12 678.75,697.87 659.08,698.03 C648.77,698.12 646.51,697.87 645.78,696.57 C645.42,695.92 644.80,695.37 644.23,695.13 C660.96,695.12 674.04,694.95 676.92,694.58 C686.57,693.33 688.58,691.47 681.31,690.50 C680.20,690.36 679.03,690.17 677.82,689.95 Z" fill="rgba(1,1,1,1)"/>
    <path d="M 545.00 764.50 C545.00,772.48 545.23,773.85 546.50,773.36 C547.17,773.11 547.56,772.35 547.78,770.55 C547.76,773.50 547.73,776.12 547.67,778.29 C547.67,778.56 547.66,778.82 547.65,779.09 C547.33,777.84 546.58,777.98 545.22,778.84 C543.58,779.89 543.21,801.24 544.83,801.78 C545.41,801.97 545.64,802.78 545.34,803.56 C545.03,804.35 545.28,805.00 545.89,805.00 C546.50,805.00 546.89,805.45 546.75,806.00 C546.02,808.92 562.39,824.80 573.75,832.21 C577.19,834.45 580.00,836.58 580.00,836.96 C580.00,837.33 578.29,838.59 576.20,839.77 C574.10,840.95 571.24,842.94 569.84,844.20 C568.43,845.47 566.28,847.17 565.06,848.00 C561.33,850.52 551.03,861.24 551.55,862.08 C551.81,862.50 551.17,863.13 550.13,863.46 C548.27,864.05 543.29,870.64 542.76,873.21 C542.62,873.92 541.78,875.17 540.90,876.00 C538.59,878.16 536.29,883.22 536.73,885.15 C536.94,886.06 536.25,887.41 535.20,888.15 C532.51,890.06 529.61,896.01 529.84,899.19 C529.94,900.72 529.37,902.25 528.51,902.73 C527.02,903.57 523.56,912.14 522.62,917.32 C522.35,918.77 521.81,920.49 521.41,921.14 C521.02,921.78 520.55,923.25 520.38,924.40 C519.46,930.56 517.88,934.83 516.30,935.44 C515.25,935.84 514.95,935.57 515.35,934.54 C515.66,933.72 515.36,932.48 514.67,931.78 C513.99,931.08 513.44,929.38 513.46,928.00 C513.55,922.20 503.93,894.00 501.86,894.00 C501.32,894.00 501.16,893.55 501.50,893.00 C501.84,892.45 501.60,892.00 500.98,892.00 C500.35,892.00 500.03,891.44 500.28,890.75 C500.77,889.35 497.31,881.87 495.69,880.83 C495.11,880.46 494.54,879.48 494.42,878.65 C494.06,876.21 487.93,867.55 482.00,861.09 C480.08,859.00 477.44,856.10 476.15,854.64 C474.86,853.19 473.43,852.24 472.97,852.52 C472.52,852.80 471.85,852.12 471.50,851.00 C471.15,849.89 469.54,848.30 467.93,847.46 C466.32,846.63 465.00,845.60 465.00,845.17 C465.00,844.75 462.30,842.84 459.01,840.95 C455.72,839.05 453.02,837.26 453.01,836.97 C453.00,836.67 454.36,835.63 456.03,834.64 C457.70,833.66 459.95,831.90 461.03,830.73 C462.12,829.57 463.65,828.52 464.43,828.41 C466.48,828.11 470.68,824.85 472.04,822.50 C472.68,821.40 475.83,818.25 479.03,815.50 C482.55,812.48 484.89,810.51 486.44,808.06 C489.56,803.11 489.50,796.16 489.50,774.50 C489.50,756.99 489.87,746.22 490.50,745.77 C491.12,745.31 491.02,745.02 490.25,745.02 C489.31,745.00 489.00,741.49 489.00,730.80 C489.00,721.36 488.67,716.93 488.00,717.60 C487.39,718.21 486.77,734.82 486.40,760.55 C486.24,771.52 486.10,779.78 485.93,786.04 C486.13,778.04 486.29,766.71 486.49,750.51 C486.69,733.48 486.80,721.36 486.74,712.80 C486.95,714.21 487.58,713.92 489.00,713.02 C490.09,712.33 490.50,710.23 490.50,705.29 C490.50,697.94 488.79,692.52 486.16,691.50 C483.88,690.62 392.01,690.89 390.42,691.79 C389.13,692.51 362.92,691.16 362.03,690.33 C361.19,689.54 364.45,687.98 366.50,688.19 C369.21,688.46 376.00,686.08 376.00,684.86 C376.00,684.32 376.45,684.16 377.00,684.50 C377.55,684.84 378.00,684.70 378.00,684.18 C378.00,683.66 379.46,682.70 381.25,682.05 C389.27,679.10 397.00,673.64 397.00,670.92 C397.00,669.26 395.53,669.94 389.97,674.15 C389.27,674.68 388.45,675.26 387.56,675.85 C392.11,672.51 397.61,667.50 401.79,662.96 C399.62,665.62 398.00,667.87 398.00,668.27 C398.00,670.05 406.60,662.77 408.90,659.04 C410.23,656.90 412.80,654.34 414.63,653.36 C417.34,651.90 418.90,650.19 418.52,649.41 C422.91,649.01 431.12,648.95 448.81,648.90 C464.22,648.85 478.06,648.58 482.56,648.27 C481.86,648.38 481.10,648.48 480.33,648.57 C471.15,649.63 469.99,650.37 476.50,651.04 C479.80,651.39 482.79,651.74 483.15,651.83 C483.51,651.92 485.36,650.44 487.27,648.53 L 490.73 645.07 L 490.80 633.78 C490.89,620.70 489.16,614.09 485.61,613.87 C484.45,613.80 469.33,613.67 452.00,613.59 C419.30,613.42 416.40,613.25 415.21,611.37 C414.82,610.75 410.95,608.35 406.60,606.04 C402.26,603.73 398.06,601.20 397.28,600.42 C396.50,599.64 395.44,598.94 394.93,598.88 C394.42,598.81 393.65,598.69 393.23,598.62 C392.80,598.56 391.79,597.92 390.98,597.22 C390.16,596.51 388.60,595.27 387.50,594.47 C386.84,593.98 386.22,593.74 386.13,593.37 C385.89,592.39 389.39,590.52 405.80,581.02 L 423.09 571.00 L 447.12 571.00 C467.14,571.00 471.39,570.75 472.64,569.50 C473.92,568.22 471.43,568.02 450.45,568.05 L 453.50 568.00 L 486.50 567.50 L 486.78 554.01 C487.03,542.20 486.85,540.36 485.34,539.26 C485.02,539.02 484.01,538.83 482.07,538.66 C483.81,538.77 484.81,538.90 485.07,539.04 C486.83,539.98 487.00,541.25 487.00,553.54 C487.00,560.94 487.19,567.00 487.42,567.00 C487.65,567.00 488.55,566.73 489.42,566.39 C491.21,565.70 491.60,562.00 489.88,562.00 C488.77,562.00 489.01,556.65 490.52,547.76 C491.21,543.70 489.41,536.63 487.92,537.55 C487.41,537.86 487.00,537.57 487.00,536.89 C487.00,536.22 486.72,535.95 486.38,536.29 C486.04,536.63 485.22,536.36 484.56,535.70 C483.01,534.16 372.55,534.47 373.51,536.02 C373.85,536.57 372.96,537.00 371.49,537.00 C368.25,537.00 365.00,538.66 365.00,540.31 C365.00,541.00 364.21,542.29 363.25,543.19 C362.29,544.08 360.67,546.02 359.64,547.49 L 357.79 550.15 L 355.36 546.58 C354.02,544.61 352.48,543.00 351.92,543.00 C350.79,543.00 343.86,536.35 342.43,533.89 C341.10,531.59 328.02,522.87 326.92,523.55 C326.41,523.86 326.00,523.71 326.00,523.22 C326.00,522.73 324.76,521.74 323.25,521.04 C320.73,519.87 308.17,515.37 307.00,515.23 C302.05,514.60 300.01,512.91 303.59,512.38 C307.31,511.84 319.00,507.86 320.19,506.74 C320.91,506.06 322.40,505.34 323.50,505.15 C324.60,504.96 325.86,504.18 326.30,503.40 C326.74,502.63 327.87,502.00 328.82,502.00 C330.32,502.00 336.02,498.65 339.77,495.55 C341.74,493.93 351.49,483.90 354.76,480.13 L 357.69 476.75 L 359.91 479.13 C361.13,480.43 363.05,482.98 364.17,484.78 C366.59,488.70 372.94,492.28 375.06,490.94 C375.85,490.44 377.76,490.02 379.31,490.02 C380.92,490.01 381.86,489.57 381.50,489.00 C381.26,488.60 380.08,488.26 378.59,488.10 L 400.15 487.75 C421.49,487.41 426.60,487.23 432.93,485.75 C429.58,486.54 426.83,487.00 425.05,487.02 C423.65,487.02 421.83,487.47 421.00,488.02 C419.72,488.85 419.71,489.13 420.91,489.91 C421.68,490.41 422.81,490.65 423.41,490.45 C424.49,490.10 428.97,489.27 434.29,488.46 C435.82,488.22 437.85,487.62 438.79,487.11 C439.73,486.61 440.84,486.14 441.25,486.07 C445.83,485.32 448.00,484.59 448.00,483.80 C448.00,483.28 449.01,482.99 450.25,483.15 C452.98,483.50 465.00,479.14 465.00,477.79 C465.00,477.27 465.56,477.03 466.25,477.28 C467.83,477.84 479.07,472.27 480.71,470.12 C481.38,469.23 481.95,468.87 481.97,469.33 C481.99,469.79 483.67,469.13 485.71,467.87 C494.69,462.32 501.69,453.95 500.32,450.40 C500.07,449.74 500.35,448.90 500.95,448.53 C501.54,448.16 501.74,447.39 501.39,446.82 C501.03,446.25 501.36,445.38 502.12,444.89 C503.24,444.16 503.26,443.84 502.20,443.16 C501.28,442.57 500.91,439.79 500.96,433.91 C501.00,429.28 500.80,423.97 500.52,422.09 C499.90,417.97 495.38,407.85 493.71,406.82 C493.04,406.41 492.44,405.61 492.38,405.04 C492.31,404.47 492.19,403.63 492.12,403.18 C492.00,402.39 482.93,393.09 479.26,390.00 C475.27,386.64 467.32,382.09 464.56,381.59 C462.94,381.30 460.56,379.93 459.27,378.54 C456.55,375.60 451.53,372.80 450.63,373.71 C450.28,374.05 450.00,373.82 450.00,373.19 C450.00,372.02 443.00,368.00 440.97,368.00 C440.36,368.00 439.18,367.32 438.35,366.49 C437.52,365.66 436.43,365.24 435.92,365.55 C435.41,365.86 435.00,365.74 435.00,365.29 C435.00,364.49 428.34,360.50 427.01,360.50 C426.65,360.50 425.56,359.70 424.58,358.73 C423.61,357.75 421.41,356.23 419.70,355.35 C418.00,354.46 415.98,353.12 415.22,352.36 C414.46,351.61 412.87,350.48 411.67,349.86 C410.48,349.23 408.83,348.11 408.00,347.35 C407.17,346.60 404.32,344.24 401.66,342.10 C398.99,339.97 396.82,337.84 396.83,337.36 C396.87,336.10 393.85,332.98 393.06,333.46 C392.69,333.69 391.06,332.24 389.44,330.24 C387.82,328.24 385.54,325.68 384.38,324.55 C381.86,322.12 366.30,298.53 365.45,295.85 C365.13,294.83 364.42,294.00 363.87,294.00 C363.33,294.00 363.15,293.57 363.48,293.04 C363.80,292.51 363.16,291.16 362.04,290.04 C360.92,288.92 360.20,288.00 360.45,288.00 C360.69,288.00 360.43,286.65 359.85,285.00 C359.27,283.35 358.37,282.00 357.84,282.00 C357.31,282.00 357.12,281.62 357.41,281.15 C357.69,280.69 356.40,276.41 354.53,271.65 C352.66,266.89 351.35,263.00 351.60,263.00 C351.86,263.00 351.61,262.14 351.04,261.08 C350.48,260.02 349.76,257.44 349.45,255.33 C349.14,253.22 348.61,250.60 348.27,249.50 C347.92,248.40 347.50,246.60 347.31,245.50 C347.13,244.40 346.72,241.93 346.40,240.00 C346.09,238.07 345.75,234.38 345.66,231.79 C345.55,228.65 344.88,226.48 343.63,225.29 C343.13,224.81 342.77,224.48 342.52,224.37 C342.48,223.22 342.44,222.01 342.41,220.73 C342.48,221.03 342.57,221.24 342.67,221.33 C343.91,222.57 344.00,222.02 344.00,213.44 C344.00,207.99 343.64,205.11 343.00,205.50 C342.61,205.74 342.33,207.62 342.16,210.01 C342.12,206.21 342.14,203.01 342.25,200.12 C342.48,200.53 342.88,200.60 343.50,200.36 C344.91,199.82 345.40,198.34 345.25,195.14 C345.10,191.92 347.02,181.37 348.88,175.23 C349.43,173.43 349.89,171.74 349.92,171.48 C350.40,166.42 354.80,154.51 356.29,154.20 C357.22,154.01 357.93,152.08 358.30,148.70 C358.50,146.94 358.79,144.79 359.08,142.96 C358.22,150.30 358.49,166.78 359.56,178.51 C359.20,175.95 358.84,173.23 358.48,170.32 C357.72,164.27 355.10,162.07 354.84,167.28 C354.76,169.05 354.81,171.18 354.95,172.00 C355.10,172.82 355.38,175.30 355.58,177.50 C355.78,179.70 356.19,182.85 356.50,184.50 C356.81,186.15 357.28,189.52 357.56,192.00 C358.43,199.92 366.33,223.00 368.18,223.00 C368.69,223.00 368.84,223.45 368.50,224.00 C368.16,224.55 368.43,225.00 369.11,225.00 C369.78,225.00 370.05,225.28 369.71,225.62 C369.00,226.34 374.45,237.54 375.98,238.48 C376.54,238.83 378.11,241.45 379.47,244.31 C380.83,247.16 382.97,250.70 384.22,252.16 C385.48,253.62 387.17,255.86 388.00,257.15 C389.67,259.75 406.03,277.27 407.33,277.85 C407.78,278.05 409.63,279.63 411.44,281.36 C413.25,283.09 415.92,285.40 417.39,286.50 C418.85,287.60 420.65,289.03 421.38,289.68 C427.12,294.76 454.33,309.53 456.01,308.49 C456.56,308.16 457.00,308.35 457.00,308.92 C457.00,310.14 461.67,311.53 464.35,311.12 C465.37,310.97 467.07,311.78 468.14,312.92 C469.21,314.06 470.62,315.03 471.29,315.08 C471.96,315.12 473.17,315.34 474.00,315.56 C478.58,316.79 485.05,318.11 489.00,318.61 C491.48,318.92 493.69,319.37 493.93,319.60 C494.89,320.54 498.82,315.69 498.27,314.25 C497.93,313.38 498.44,312.15 499.42,311.44 C501.36,310.02 506.14,299.04 505.37,297.79 C505.10,297.34 505.58,296.28 506.44,295.42 C507.95,293.90 508.44,291.98 508.04,289.11 C507.93,288.34 508.35,287.40 508.96,287.03 C509.57,286.65 510.30,285.02 510.57,283.42 C510.85,281.81 511.60,278.92 512.24,277.00 C512.88,275.08 513.30,273.11 513.17,272.63 C513.03,272.16 513.48,270.13 514.16,268.13 C514.85,266.13 515.28,263.87 515.12,263.10 C514.89,261.93 515.08,261.94 516.29,263.15 C517.55,264.41 518.77,267.09 519.63,270.50 C519.77,271.05 520.13,272.51 520.44,273.75 C520.75,274.99 521.21,276.79 521.46,277.75 C521.72,278.71 522.54,281.98 523.28,285.00 C524.03,288.02 525.17,291.48 525.82,292.68 C526.47,293.89 527.00,295.74 527.00,296.81 C527.00,297.88 527.67,299.31 528.49,299.99 C529.31,300.67 529.76,301.57 529.50,302.00 C529.24,302.42 529.91,303.88 530.98,305.25 C532.06,306.61 532.70,307.97 532.41,308.26 C531.57,309.10 534.85,316.17 536.76,317.62 C538.82,319.18 546.00,319.45 546.00,317.96 C546.00,317.26 546.60,317.25 547.87,317.93 C548.90,318.48 549.96,318.71 550.23,318.43 C550.51,318.16 551.69,317.73 552.86,317.47 C554.04,317.21 555.79,316.79 556.75,316.53 C561.76,315.18 566.71,313.89 568.43,313.49 C569.49,313.25 570.67,312.53 571.06,311.90 C571.46,311.26 572.24,311.03 572.80,311.38 C574.14,312.21 583.00,308.38 584.51,306.31 C585.16,305.42 586.18,304.99 586.77,305.36 C587.36,305.72 588.50,305.36 589.30,304.56 C590.10,303.75 591.04,303.37 591.38,303.71 C591.72,304.05 592.00,303.78 592.00,303.11 C592.00,302.43 592.41,302.14 592.92,302.45 C593.43,302.76 594.45,302.45 595.19,301.76 C595.94,301.07 597.21,300.35 598.02,300.17 C598.84,300.00 599.65,299.43 599.84,298.92 C600.02,298.41 600.58,298.24 601.09,298.55 C601.59,298.86 602.00,298.64 602.00,298.06 C602.00,297.48 602.84,297.00 603.88,297.00 C604.91,297.00 606.37,296.26 607.11,295.36 C607.86,294.46 610.27,292.59 612.46,291.21 C614.66,289.82 616.99,288.20 617.65,287.59 C618.30,286.99 620.02,285.60 621.45,284.50 C622.89,283.40 627.70,278.90 632.13,274.50 C636.57,270.10 639.84,267.17 639.41,268.00 C638.72,269.30 638.85,269.31 640.33,268.11 C641.28,267.34 641.85,266.52 641.61,266.27 C641.18,265.85 641.87,264.90 645.99,260.26 C651.40,254.17 662.16,237.10 662.44,234.17 C662.67,231.62 665.79,225.00 666.75,225.00 C668.02,225.00 671.94,216.43 672.61,212.19 C672.94,210.16 673.50,208.27 673.86,208.00 C674.97,207.15 676.93,200.69 677.50,195.99 C677.80,193.52 678.52,189.02 679.10,186.00 C680.36,179.50 680.36,179.48 680.16,175.05 C679.88,169.07 678.18,172.99 677.03,182.22 C676.70,184.86 676.29,187.51 675.79,190.16 C677.36,181.11 678.00,171.29 678.00,159.28 C678.00,158.08 678.01,156.94 678.02,155.86 C678.10,160.69 678.43,161.77 679.41,161.40 C680.60,160.94 682.13,163.15 681.92,165.00 C681.89,165.27 682.38,166.85 683.02,168.50 C684.14,171.40 684.46,172.53 685.48,177.18 C685.74,178.37 686.39,179.62 686.92,179.95 C687.50,180.31 687.54,181.13 687.02,181.97 C686.53,182.75 686.50,184.09 686.94,184.95 C687.38,185.80 688.07,188.75 688.47,191.50 C688.86,194.25 689.65,197.06 690.22,197.75 C690.78,198.44 691.64,199.00 692.12,199.00 C692.28,199.00 692.42,198.98 692.53,198.92 C693.26,207.97 693.26,217.08 692.53,226.21 C690.72,224.72 688.30,230.01 687.50,237.32 C687.33,238.87 686.95,240.38 686.66,240.67 C686.37,240.97 686.53,242.25 687.01,243.54 C687.57,245.00 687.53,245.99 686.90,246.20 C686.34,246.39 685.73,247.43 685.52,248.52 C685.32,249.61 685.06,250.50 684.95,250.50 C684.84,250.50 684.61,251.40 684.44,252.50 C684.28,253.60 683.86,255.62 683.51,257.00 C683.17,258.38 682.78,259.95 682.66,260.50 C682.54,261.05 682.09,262.06 681.66,262.75 C681.23,263.44 681.14,264.42 681.45,264.92 C681.77,265.43 680.90,267.96 679.53,270.54 C678.15,273.13 677.28,275.64 677.58,276.13 C677.88,276.62 677.42,277.72 676.55,278.59 C675.69,279.45 675.27,280.63 675.62,281.19 C675.97,281.76 675.81,282.51 675.26,282.86 C674.00,283.66 668.94,293.61 669.50,294.17 C669.73,294.40 668.90,295.77 667.66,297.22 C666.41,298.67 664.52,301.57 663.45,303.68 C662.38,305.78 660.98,307.95 660.34,308.50 C659.70,309.05 657.90,311.53 656.34,314.02 C654.78,316.50 652.70,319.43 651.73,320.52 C650.76,321.61 648.66,323.94 647.07,325.70 C645.47,327.46 643.87,329.82 643.52,330.95 C643.16,332.08 642.45,333.00 641.93,333.00 C641.42,333.00 641.00,333.71 641.00,334.58 C641.00,336.44 642.05,336.24 644.90,333.42 C642.96,335.48 640.98,337.50 638.95,339.46 C640.30,337.89 640.70,336.93 640.14,336.59 C639.58,336.24 638.76,336.53 638.31,337.23 C637.87,337.93 635.73,339.40 633.56,340.50 C631.40,341.60 627.72,344.30 625.38,346.50 C620.54,351.07 619.64,351.79 615.50,354.43 C613.85,355.49 611.95,357.06 611.28,357.92 C610.61,358.79 610.05,359.14 610.03,358.71 C609.99,357.67 600.85,362.98 599.28,364.96 C598.61,365.81 598.05,366.16 598.03,365.74 C597.96,364.00 574.44,377.01 572.70,379.74 C572.26,380.43 571.43,381.00 570.85,381.00 C570.27,381.00 568.55,382.24 567.02,383.75 C565.50,385.26 560.93,389.74 556.87,393.69 C546.84,403.47 545.67,405.10 541.53,414.94 C538.94,421.09 538.49,427.40 538.97,451.18 C538.98,452.10 539.72,453.58 540.60,454.45 C541.48,455.33 541.95,456.68 541.66,457.44 C541.37,458.21 542.51,460.28 544.20,462.05 C549.96,468.08 571.59,479.99 574.03,478.48 C574.56,478.15 575.00,478.30 575.00,478.81 C575.00,480.20 584.83,484.00 586.63,483.31 C587.49,482.98 588.50,483.20 588.87,483.79 C589.24,484.39 590.66,485.09 592.02,485.35 C593.38,485.61 595.25,486.12 596.18,486.49 C598.29,487.33 609.59,489.91 613.30,490.40 C614.84,490.60 616.31,490.98 616.57,491.24 C617.50,492.17 622.30,491.13 623.11,489.82 C623.72,488.84 622.18,488.31 616.22,487.50 L 648.87 487.50 L 648.83 487.50 C639.60,488.41 638.07,489.33 644.50,490.09 C647.25,490.41 650.10,490.52 650.83,490.34 C651.56,490.15 653.20,490.00 654.46,490.00 C657.14,490.00 662.81,484.59 663.65,481.24 C664.20,479.07 666.72,477.00 668.83,477.00 C669.35,477.00 670.05,478.07 670.38,479.37 C671.17,482.51 676.86,487.99 678.63,487.31 C679.68,486.91 679.14,485.62 676.47,482.14 C676.28,481.89 676.09,481.64 675.90,481.38 C680.24,486.65 686.39,491.96 693.55,496.57 C691.24,495.12 689.06,493.66 687.52,492.50 C684.23,490.02 681.22,488.00 680.83,488.00 C679.07,488.00 679.10,490.09 680.89,491.71 C684.14,494.67 685.88,496.00 686.50,496.00 C686.82,496.00 688.04,496.89 689.20,497.97 C692.28,500.84 706.84,508.22 708.01,507.50 C708.55,507.16 709.00,507.35 709.00,507.91 C709.00,508.86 718.91,512.30 721.71,512.32 C724.38,512.35 721.58,514.07 716.45,515.56 C713.45,516.43 711.00,517.60 711.00,518.15 C711.00,518.71 710.44,518.97 709.75,518.73 C708.01,518.12 697.99,522.64 696.38,524.76 C695.66,525.72 695.05,526.15 695.03,525.72 C694.99,524.77 690.29,527.15 687.28,529.65 C686.06,530.67 683.47,532.78 681.53,534.35 C679.59,535.92 678.00,537.83 678.00,538.58 C678.00,539.34 676.76,540.74 675.25,541.70 C673.74,542.67 672.18,543.91 671.79,544.48 C671.40,545.04 670.35,546.49 669.44,547.70 L 667.80 549.89 L 664.24 545.20 C662.28,542.61 659.73,539.72 658.59,538.77 C657.44,537.82 655.95,536.57 655.27,536.00 C654.46,535.31 636.12,534.96 600.87,534.96 C571.63,534.96 547.66,535.08 547.60,535.23 C547.54,535.38 546.56,536.85 545.43,538.50 C543.55,541.22 543.39,542.69 543.69,554.45 C543.92,563.36 544.41,567.63 545.26,568.16 C546.44,568.89 547.02,568.31 547.18,565.03 L 547.22 568.00 L 586.56 568.00 C559.27,568.00 556.02,568.17 557.36,569.50 C558.62,570.76 563.32,571.00 587.02,571.00 L 615.18 571.00 L 621.59 574.59 C625.11,576.56 628.00,577.82 628.00,577.40 C628.00,576.97 628.93,577.62 630.06,578.83 C631.19,580.05 632.54,580.78 633.06,580.46 C633.58,580.14 634.00,580.26 634.00,580.73 C634.00,581.71 644.18,588.06 646.23,588.36 C646.99,588.47 648.82,589.68 650.29,591.04 L 652.96 593.52 L 648.48 595.90 C646.02,597.21 644.00,598.69 644.00,599.20 C644.00,599.70 643.63,599.89 643.17,599.60 C642.41,599.14 635.21,603.39 634.00,605.02 C633.72,605.39 632.38,605.97 631.00,606.31 C629.62,606.66 627.26,608.09 625.75,609.51 C624.24,610.92 623.00,611.83 623.00,611.51 C623.00,611.20 621.64,611.65 619.97,612.51 C617.36,613.86 612.04,614.04 581.41,613.82 C554.76,613.63 545.70,613.87 545.15,614.76 C544.74,615.42 544.29,619.63 544.13,624.12 C543.88,631.55 544.00,632.15 545.43,630.72 C546.51,629.63 547.00,627.26 547.00,623.05 L 547.00 630.79 C547.00,639.58 547.26,643.76 547.98,645.71 C547.26,644.40 547.00,642.55 547.00,639.92 C547.00,636.79 546.53,635.03 545.59,634.67 C544.50,634.25 544.10,635.41 543.84,639.71 C543.55,644.52 543.85,645.69 546.00,648.11 C548.23,650.62 549.18,650.93 554.81,650.96 C562.27,651.01 562.30,649.48 554.85,648.76 C552.81,648.56 551.26,648.25 550.11,647.68 C552.83,648.47 560.21,648.58 584.83,648.79 L 613.65 649.02 L 616.16 651.75 C617.55,653.26 620.27,657.44 622.20,661.03 C625.21,666.61 630.21,672.58 635.20,676.53 C638.31,679.00 644.00,682.09 644.03,681.33 C644.05,680.87 644.61,681.20 645.28,682.05 C646.61,683.74 657.26,688.33 659.86,688.33 C660.75,688.33 662.04,688.89 662.72,689.58 C663.71,690.57 662.23,690.97 655.39,691.54 C650.67,691.93 644.49,691.98 641.65,691.65 C638.82,691.31 617.90,691.01 595.17,690.97 C572.44,690.92 552.76,690.48 551.43,689.97 C549.64,689.29 548.70,689.45 547.76,690.60 C547.07,691.45 545.74,692.99 544.80,694.02 C542.93,696.09 542.24,703.48 543.43,708.75 C543.87,710.71 544.78,712.00 545.72,712.00 C546.24,712.00 546.58,711.84 546.76,711.32 C546.84,715.66 546.99,721.25 547.22,728.50 C547.31,731.30 547.39,734.27 547.45,737.33 C547.08,726.93 546.18,715.04 545.34,714.19 C544.22,713.08 543.97,714.82 543.80,724.68 C543.49,742.72 543.85,750.11 545.10,751.62 C545.73,752.38 546.62,753.00 547.08,753.00 C547.45,753.00 547.61,750.64 547.64,747.08 C547.69,750.88 547.74,754.68 547.76,758.33 C547.54,756.61 547.15,755.89 546.50,755.64 C545.23,755.15 545.00,756.52 545.00,764.50 ZM 690.00 212.60 C690.00,223.75 690.17,224.98 691.50,223.64 C692.64,222.50 693.00,219.65 693.00,211.68 C693.00,203.30 692.70,201.10 691.50,200.64 C690.22,200.15 690.00,201.87 690.00,212.60 ZM 387.50 489.00 C387.10,489.65 391.84,490.00 401.00,490.00 C410.16,490.00 414.90,489.65 414.50,489.00 C414.14,488.42 408.51,488.00 401.00,488.00 C393.49,488.00 387.86,488.42 387.50,489.00 ZM 443.50 650.00 C443.11,650.63 445.68,651.00 450.50,651.00 C455.32,651.00 457.89,650.63 457.50,650.00 C457.16,649.45 454.01,649.00 450.50,649.00 C446.99,649.00 443.84,649.45 443.50,650.00 ZM 384.58 245.95 C397.17,264.59 413.81,280.84 433.28,293.23 C413.67,280.94 397.19,264.99 384.58,245.95 ZM 624.46 278.25 C641.71,263.08 655.62,244.13 665.69,221.84 C666.59,219.87 667.42,217.94 668.20,216.04 C662.40,230.61 654.08,244.94 643.46,258.57 C638.12,265.42 631.68,272.06 624.46,278.25 ZM 486.54 645.16 L 486.78 632.21 L 487.00 619.87 L 487.00 631.94 C487.00,637.45 486.81,642.39 486.54,645.16 ZM 690.50 242.32 C688.57,253.46 685.56,264.58 681.47,275.57 C677.94,285.05 673.24,294.55 667.61,303.73 C676.71,288.75 683.50,272.54 687.48,256.07 C688.60,251.43 689.64,246.65 690.50,242.32 ZM 486.84 706.47 C486.79,707.57 486.74,708.51 486.71,709.33 C486.60,701.50 486.29,697.28 485.70,695.18 C486.65,697.31 487.10,701.30 486.84,706.47 ZM 547.55 787.21 C547.53,793.48 547.69,798.44 548.00,800.71 C547.01,797.36 547.08,793.48 547.54,787.34 C547.54,787.30 547.54,787.26 547.55,787.21 ZM 352.55 689.47 C361.27,687.41 374.13,683.05 381.28,679.64 C380.28,680.18 379.33,680.66 378.50,681.04 C372.02,684.00 360.58,687.64 352.55,689.47 ZM 549.99 693.37 C549.17,693.39 548.50,694.10 547.71,695.67 C546.99,697.08 546.67,699.44 546.70,706.39 C546.67,706.11 546.64,705.81 546.61,705.50 C545.91,698.62 547.46,693.37 549.99,693.37 ZM 575.33 828.79 C575.48,828.89 575.63,829.00 575.79,829.10 C581.46,832.89 586.53,836.00 587.05,836.00 C585.75,836.00 580.90,832.89 575.33,828.79 ZM 396.00 336.62 C396.00,337.45 395.18,336.92 393.87,335.25 C392.63,333.66 392.66,333.63 394.25,334.87 C395.21,335.63 396.00,336.41 396.00,336.62 ZM 617.74 649.06 L 619.83 649.07 L 625.30 658.73 C620.87,650.92 619.80,649.34 617.74,649.06 ZM 392.84 584.69 C392.96,584.63 393.07,584.56 393.18,584.50 C400.88,580.10 410.17,574.70 413.84,572.50 L 420.50 568.50 L 420.83 568.50 L 414.00 572.49 C409.88,574.91 400.35,580.40 392.84,584.69 ZM 627.05 350.14 C617.71,357.80 608.11,363.87 594.50,371.01 C607.66,364.10 617.56,357.76 627.05,350.14 ZM 351.66 153.89 C349.10,161.32 346.33,172.18 344.42,181.69 C346.20,172.23 348.94,161.66 351.66,153.89 ZM 368.42 307.07 C358.93,291.95 351.63,275.21 347.18,257.99 C344.80,248.77 343.76,244.34 343.17,237.44 C344.05,245.07 344.92,249.20 347.19,257.99 C351.63,275.20 358.93,291.94 368.42,307.07 ZM 683.97 157.75 C686.97,166.52 689.23,175.46 690.75,184.51 C688.66,173.43 686.71,165.76 683.97,157.75 ZM 546.75 546.99 C546.90,549.33 547.02,552.71 547.07,556.34 L 547.08 557.22 C547.04,556.32 547.00,555.35 546.95,554.31 C546.81,551.30 546.74,548.90 546.75,546.99 ZM 580.74 478.07 C585.50,479.83 590.65,481.53 596.23,483.21 L 598.04 483.75 C592.35,482.18 586.47,480.25 580.74,478.07 ZM 655.78 486.82 L 658.58 483.50 L 656.17 486.78 L 655.78 486.82 ZM 364.01 202.00 C365.35,206.72 366.92,211.37 368.73,215.95 C366.83,211.33 365.31,206.86 364.01,202.00 ZM 668.16 471.14 C669.11,471.05 669.97,471.77 670.72,473.29 C669.93,472.10 669.01,471.37 668.16,471.14 ZM 475.34 312.39 C480.32,313.90 485.21,315.20 488.72,315.95 C486.99,315.60 484.98,315.13 482.91,314.58 C480.36,313.89 477.83,313.16 475.34,312.39 ZM 359.05 137.06 C358.29,137.26 357.11,138.86 356.17,141.58 C357.23,138.52 358.37,136.98 359.05,137.06 ZM 663.31 476.85 C663.66,476.27 663.97,475.73 664.23,475.25 C664.60,474.56 664.96,473.96 665.32,473.44 C664.96,474.20 664.23,475.43 663.31,476.85 ZM 411.50 651.83 C411.91,651.52 412.31,651.25 412.67,651.03 C413.17,650.74 413.64,650.48 414.19,650.27 C413.31,650.73 412.38,651.28 411.50,651.83 ZM 360.68 473.75 C361.66,475.81 364.78,479.91 367.63,482.85 C367.60,482.81 367.57,482.78 367.53,482.75 C364.74,479.86 361.66,475.81 360.68,473.75 ZM 434.09 485.47 C435.08,485.22 436.13,484.94 437.29,484.62 C438.12,484.39 438.95,484.16 439.77,483.93 C437.76,484.51 435.85,485.03 434.09,485.47 ZM 557.25 813.64 C557.95,814.35 558.68,815.07 559.43,815.79 C558.64,815.05 557.92,814.34 557.29,813.69 C557.28,813.67 557.26,813.66 557.25,813.64 ZM 406.81 656.72 C406.91,656.58 407.01,656.43 407.12,656.29 C407.02,656.42 406.92,656.57 406.81,656.72 Z" fill="rgba(255,255,255,1)"/>
    <path d="M 514.20 943.76 C508.42,909.94 495.29,879.83 478.00,860.74 C471.30,853.35 459.09,844.16 451.76,840.98 C448.61,839.62 446.03,838.02 446.02,837.44 C446.01,836.85 447.59,835.61 449.53,834.69 C461.09,829.17 480.45,812.90 484.25,805.50 C485.54,803.00 485.89,795.52 486.40,760.55 C486.77,734.82 487.39,718.21 488.00,717.60 C488.67,716.93 489.00,721.36 489.00,730.80 C489.00,741.49 489.31,745.00 490.25,745.02 C491.02,745.02 491.12,745.31 490.50,745.77 C489.87,746.22 489.50,756.99 489.50,774.50 C489.50,806.93 489.64,806.39 479.03,815.50 C475.83,818.25 472.68,821.40 472.04,822.50 C470.68,824.85 466.48,828.11 464.43,828.41 C463.65,828.52 462.12,829.57 461.03,830.73 C459.95,831.90 457.70,833.66 456.03,834.64 C454.36,835.63 453.00,836.67 453.01,836.97 C453.02,837.26 455.72,839.05 459.01,840.95 C462.30,842.84 465.00,844.75 465.00,845.17 C465.00,845.60 466.32,846.63 467.93,847.46 C469.54,848.30 471.15,849.89 471.50,851.00 C471.85,852.12 472.52,852.80 472.97,852.52 C473.43,852.24 474.86,853.19 476.15,854.64 C477.44,856.10 480.08,859.00 482.00,861.09 C487.93,867.55 494.06,876.21 494.42,878.65 C494.54,879.48 495.11,880.46 495.69,880.83 C497.31,881.87 500.77,889.35 500.28,890.75 C500.03,891.44 500.35,892.00 500.98,892.00 C501.60,892.00 501.84,892.45 501.50,893.00 C501.16,893.55 501.32,894.00 501.86,894.00 C503.93,894.00 513.55,922.20 513.46,928.00 C513.44,929.38 513.99,931.08 514.67,931.78 C515.36,932.48 515.66,933.72 515.35,934.54 C514.95,935.57 515.25,935.84 516.30,935.44 C517.88,934.83 519.46,930.56 520.38,924.40 C520.55,923.25 521.02,921.78 521.41,921.14 C521.81,920.49 522.35,918.77 522.62,917.32 C523.56,912.14 527.02,903.57 528.51,902.73 C529.37,902.25 529.94,900.72 529.84,899.19 C529.61,896.01 532.51,890.06 535.20,888.15 C536.25,887.41 536.94,886.06 536.73,885.15 C536.29,883.22 538.59,878.16 540.90,876.00 C541.78,875.17 542.62,873.92 542.76,873.21 C543.29,870.64 548.27,864.05 550.13,863.46 C551.17,863.13 551.81,862.50 551.55,862.08 C551.03,861.24 561.33,850.52 565.06,848.00 C566.28,847.17 568.43,845.47 569.84,844.20 C571.24,842.94 574.10,840.95 576.20,839.77 C578.29,838.59 580.00,837.33 580.00,836.96 C580.00,836.58 577.19,834.45 573.75,832.21 C562.39,824.80 546.02,808.92 546.75,806.00 C546.89,805.45 546.50,805.00 545.89,805.00 C545.28,805.00 545.03,804.35 545.34,803.56 C545.64,802.78 545.41,801.97 544.83,801.78 C543.21,801.24 543.58,779.89 545.22,778.84 C547.91,777.14 548.22,778.26 547.54,787.34 C546.52,800.92 547.45,803.43 557.29,813.69 C564.57,821.27 584.22,836.00 587.05,836.00 C589.64,836.00 587.39,838.28 582.24,840.88 C575.48,844.29 565.20,851.81 559.35,857.62 C541.15,875.71 525.59,910.55 520.14,945.43 C519.20,951.44 517.99,956.50 517.45,956.68 C516.91,956.86 515.45,951.07 514.20,943.76 ZM 545.00 764.50 C545.00,756.52 545.23,755.15 546.50,755.64 C547.67,756.09 548.00,758.06 548.00,764.50 C548.00,770.94 547.67,772.91 546.50,773.36 C545.23,773.85 545.00,772.48 545.00,764.50 ZM 545.10 751.62 C543.85,750.11 543.49,742.72 543.80,724.68 C543.97,714.82 544.22,713.08 545.34,714.19 C546.86,715.72 548.54,753.00 547.08,753.00 C546.62,753.00 545.73,752.38 545.10,751.62 ZM 486.84 706.47 C487.28,697.78 485.72,692.41 483.11,693.67 C480.39,694.98 360.69,695.75 350.57,694.53 C340.02,693.25 338.26,691.44 346.69,690.53 C353.65,689.78 370.17,684.85 378.50,681.04 C381.80,679.53 386.96,676.43 389.97,674.15 C395.53,669.94 397.00,669.26 397.00,670.92 C397.00,673.64 389.27,679.10 381.25,682.05 C379.46,682.70 378.00,683.66 378.00,684.18 C378.00,684.70 377.55,684.84 377.00,684.50 C376.45,684.16 376.00,684.32 376.00,684.86 C376.00,686.08 369.21,688.46 366.50,688.19 C364.45,687.98 361.19,689.54 362.03,690.33 C362.92,691.16 389.13,692.51 390.42,691.79 C392.01,690.89 483.88,690.62 486.16,691.50 C488.79,692.52 490.50,697.94 490.50,705.29 C490.50,710.23 490.09,712.33 489.00,713.02 C486.54,714.58 486.45,714.31 486.84,706.47 ZM 543.43 708.75 C542.24,703.48 542.93,696.09 544.80,694.02 C545.74,692.99 547.07,691.45 547.76,690.60 C548.70,689.45 549.64,689.29 551.43,689.97 C552.76,690.48 572.44,690.92 595.17,690.97 C617.90,691.01 638.82,691.31 641.65,691.65 C644.49,691.98 650.67,691.93 655.39,691.54 C662.23,690.97 663.71,690.57 662.72,689.58 C662.04,688.89 660.75,688.33 659.86,688.33 C657.26,688.33 646.61,683.74 645.28,682.05 C644.61,681.20 644.05,680.87 644.03,681.33 C644.00,682.09 638.31,679.00 635.20,676.53 C630.21,672.58 625.21,666.61 622.20,661.03 C620.27,657.44 617.55,653.26 616.16,651.75 L 613.63 649.00 L 616.71 649.00 C619.56,649.00 620.20,649.72 625.37,658.86 C631.00,668.80 634.88,672.73 645.01,678.77 C652.94,683.50 669.95,689.00 681.31,690.50 C688.58,691.47 686.57,693.33 676.92,694.58 C667.69,695.78 553.87,694.85 550.82,693.55 C547.81,692.27 545.83,697.89 546.61,705.50 C547.17,711.00 547.04,712.00 545.72,712.00 C544.78,712.00 543.87,710.71 543.43,708.75 ZM 398.00 668.27 C398.00,667.80 400.25,664.75 403.00,661.50 C405.75,658.25 408.00,655.24 408.00,654.81 C408.00,653.70 415.65,649.00 417.45,649.00 C419.81,649.00 418.26,651.41 414.63,653.36 C412.80,654.34 410.23,656.90 408.90,659.04 C406.60,662.77 398.00,670.05 398.00,668.27 ZM 476.50 651.04 C469.99,650.37 471.15,649.63 480.33,648.57 C482.99,648.27 485.58,647.76 486.08,647.45 C486.59,647.14 487.00,640.16 487.00,631.94 L 487.00 617.00 L 453.47 617.00 L 419.93 617.00 L 415.22 614.51 C412.62,613.14 408.43,610.78 405.89,609.26 C403.35,607.74 396.75,603.88 391.20,600.68 C385.66,597.48 380.69,594.33 380.16,593.68 C379.46,592.83 382.95,590.35 392.84,584.69 C400.35,580.40 409.88,574.91 414.00,572.49 L 421.50 568.10 L 447.82 568.05 C471.22,568.01 473.98,568.17 472.64,569.50 C471.39,570.75 467.14,571.00 447.12,571.00 L 423.09 571.00 L 405.80 581.02 C383.17,594.12 385.10,592.71 387.50,594.47 C388.60,595.27 390.16,596.51 390.98,597.22 C391.79,597.92 392.80,598.56 393.23,598.62 C393.65,598.69 394.42,598.81 394.93,598.88 C395.44,598.94 396.50,599.64 397.28,600.42 C398.06,601.20 402.26,603.73 406.60,606.04 C410.95,608.35 414.82,610.75 415.21,611.37 C416.40,613.25 419.30,613.42 452.00,613.59 C469.33,613.67 484.45,613.80 485.61,613.87 C489.16,614.09 490.89,620.70 490.80,633.78 L 490.73 645.07 L 487.27 648.53 C485.36,650.44 483.51,651.92 483.15,651.83 C482.79,651.74 479.80,651.39 476.50,651.04 ZM 443.50 650.00 C443.84,649.45 446.99,649.00 450.50,649.00 C454.01,649.00 457.16,649.45 457.50,650.00 C457.89,650.63 455.32,651.00 450.50,651.00 C445.68,651.00 443.11,650.63 443.50,650.00 ZM 546.00 648.11 C543.85,645.69 543.55,644.52 543.84,639.71 C544.10,635.41 544.50,634.25 545.59,634.67 C546.53,635.03 547.00,636.79 547.00,639.92 C547.00,646.40 548.56,648.16 554.85,648.76 C562.30,649.48 562.27,651.01 554.81,650.96 C549.18,650.93 548.23,650.62 546.00,648.11 ZM 544.13 624.12 C544.29,619.63 544.74,615.42 545.15,614.76 C545.70,613.87 554.76,613.63 581.41,613.82 C612.04,614.04 617.36,613.86 619.97,612.51 C621.64,611.65 623.00,611.20 623.00,611.51 C623.00,611.83 624.24,610.92 625.75,609.51 C627.26,608.09 629.62,606.66 631.00,606.31 C632.38,605.97 633.72,605.39 634.00,605.02 C635.21,603.39 642.41,599.14 643.17,599.60 C643.63,599.89 644.00,599.70 644.00,599.20 C644.00,598.69 646.02,597.21 648.48,595.90 L 652.96 593.52 L 650.29 591.04 C648.82,589.68 646.99,588.47 646.23,588.36 C644.18,588.06 634.00,581.71 634.00,580.73 C634.00,580.26 633.58,580.14 633.06,580.46 C632.54,580.78 631.19,580.05 630.06,578.83 C628.93,577.62 628.00,576.97 628.00,577.40 C628.00,577.82 625.11,576.56 621.59,574.59 L 615.18 571.00 L 587.02 571.00 C563.32,571.00 558.62,570.76 557.36,569.50 C556.02,568.17 559.27,568.00 586.56,568.00 L 617.26 568.00 L 626.38 573.24 C631.40,576.12 637.13,579.38 639.11,580.49 C650.12,586.61 659.95,592.58 659.98,593.15 C659.99,593.51 650.92,599.04 639.83,605.45 L 619.67 617.09 L 583.33 617.02 L 547.00 616.96 L 547.00 623.05 C547.00,627.26 546.51,629.63 545.43,630.72 C544.00,632.15 543.88,631.55 544.13,624.12 ZM 545.26 568.16 C544.41,567.63 543.92,563.36 543.69,554.45 C543.39,542.69 543.55,541.22 545.43,538.50 C546.56,536.85 547.54,535.38 547.60,535.23 C547.66,535.08 571.63,534.96 600.87,534.96 C636.12,534.96 654.46,535.31 655.27,536.00 C655.95,536.57 657.44,537.82 658.59,538.77 C659.73,539.72 662.28,542.61 664.24,545.20 L 667.80 549.89 L 669.44 547.70 C670.35,546.49 671.40,545.04 671.79,544.48 C672.18,543.91 673.74,542.67 675.25,541.70 C676.76,540.74 678.00,539.34 678.00,538.58 C678.00,537.83 679.59,535.92 681.53,534.35 C683.47,532.78 686.06,530.67 687.28,529.65 C690.29,527.15 694.99,524.77 695.03,525.72 C695.05,526.15 695.66,525.72 696.38,524.76 C697.99,522.64 708.01,518.12 709.75,518.73 C710.44,518.97 711.00,518.71 711.00,518.15 C711.00,517.60 713.45,516.43 716.45,515.56 C721.58,514.07 724.38,512.35 721.71,512.32 C718.91,512.30 709.00,508.86 709.00,507.91 C709.00,507.35 708.55,507.16 708.01,507.50 C706.84,508.22 692.28,500.84 689.20,497.97 C688.04,496.89 686.82,496.00 686.50,496.00 C685.88,496.00 684.14,494.67 680.89,491.71 C679.10,490.09 679.07,488.00 680.83,488.00 C681.22,488.00 684.23,490.02 687.52,492.50 C690.81,494.97 696.96,498.81 701.20,501.02 C709.50,505.36 727.68,511.36 736.03,512.50 C738.87,512.89 740.81,513.54 740.34,513.94 C739.88,514.34 734.55,515.68 728.50,516.90 C703.13,522.05 683.21,533.84 672.55,550.03 C670.02,553.86 667.76,557.00 667.53,557.00 C667.29,557.00 666.24,555.09 665.20,552.75 C664.16,550.41 661.07,546.14 658.35,543.25 L 653.40 538.00 L 601.22 538.00 L 549.05 538.00 L 547.72 540.25 C546.74,541.93 546.54,545.49 546.95,554.31 C547.54,566.93 547.24,569.38 545.26,568.16 ZM 487.00 553.54 C487.00,541.25 486.83,539.98 485.07,539.04 C483.80,538.36 464.13,538.00 428.11,538.00 L 373.10 538.00 L 367.91 543.19 C365.06,546.04 361.86,550.31 360.81,552.69 C359.77,555.06 358.55,557.00 358.11,557.00 C357.66,557.00 356.45,555.10 355.40,552.77 C352.91,547.22 340.14,534.50 332.26,529.69 C324.15,524.75 307.07,518.70 294.75,516.41 C289.39,515.41 285.00,514.29 285.00,513.91 C285.00,513.54 287.14,512.91 289.75,512.53 C296.03,511.60 315.12,505.81 322.21,502.67 C325.31,501.30 330.47,498.40 333.67,496.22 C340.82,491.37 352.92,478.80 355.32,473.73 C356.30,471.68 357.50,470.00 358.00,470.00 C358.50,470.00 359.71,471.69 360.68,473.75 C361.66,475.81 364.74,479.86 367.53,482.75 C372.05,487.42 373.07,488.00 376.75,488.00 C379.02,488.00 381.16,488.45 381.50,489.00 C381.86,489.57 380.92,490.01 379.31,490.02 C377.76,490.02 375.85,490.44 375.06,490.94 C372.94,492.28 366.59,488.70 364.17,484.78 C363.05,482.98 361.13,480.43 359.91,479.13 L 357.69 476.75 L 354.76 480.13 C351.49,483.90 341.74,493.93 339.77,495.55 C336.02,498.65 330.32,502.00 328.82,502.00 C327.87,502.00 326.74,502.63 326.30,503.40 C325.86,504.18 324.60,504.96 323.50,505.15 C322.40,505.34 320.91,506.06 320.19,506.74 C319.00,507.86 307.31,511.84 303.59,512.38 C300.01,512.91 302.05,514.60 307.00,515.23 C308.17,515.37 320.73,519.87 323.25,521.04 C324.76,521.74 326.00,522.73 326.00,523.22 C326.00,523.71 326.41,523.86 326.92,523.55 C328.02,522.87 341.10,531.59 342.43,533.89 C343.86,536.35 350.79,543.00 351.92,543.00 C352.48,543.00 354.02,544.61 355.36,546.58 L 357.79 550.15 L 359.64 547.49 C360.67,546.02 362.29,544.08 363.25,543.19 C364.21,542.29 365.00,541.00 365.00,540.31 C365.00,538.66 368.25,537.00 371.49,537.00 C372.96,537.00 373.85,536.57 373.51,536.02 C372.55,534.47 483.01,534.16 484.56,535.70 C485.22,536.36 486.04,536.63 486.38,536.29 C486.72,535.95 487.00,536.22 487.00,536.89 C487.00,537.57 487.41,537.86 487.92,537.55 C489.41,536.63 491.21,543.70 490.52,547.76 C489.01,556.65 488.77,562.00 489.88,562.00 C491.60,562.00 491.21,565.70 489.42,566.39 C488.55,566.73 487.65,567.00 487.42,567.00 C487.19,567.00 487.00,560.94 487.00,553.54 ZM 616.57 491.24 C616.31,490.98 614.84,490.60 613.30,490.40 C609.59,489.91 598.29,487.33 596.18,486.49 C595.25,486.12 593.38,485.61 592.02,485.35 C590.66,485.09 589.24,484.39 588.87,483.79 C588.50,483.20 587.49,482.98 586.63,483.31 C584.83,484.00 575.00,480.20 575.00,478.81 C575.00,478.30 574.56,478.15 574.03,478.48 C571.59,479.99 549.96,468.08 544.20,462.05 C542.51,460.28 541.37,458.21 541.66,457.44 C541.95,456.68 541.48,455.33 540.60,454.45 C539.72,453.58 538.98,452.10 538.97,451.18 C538.49,427.40 538.94,421.09 541.53,414.94 C545.67,405.10 546.84,403.47 556.87,393.69 C560.93,389.74 565.50,385.26 567.02,383.75 C568.55,382.24 570.27,381.00 570.85,381.00 C571.43,381.00 572.26,380.43 572.70,379.74 C574.44,377.01 597.96,364.00 598.03,365.74 C598.05,366.16 598.61,365.81 599.28,364.96 C600.85,362.98 609.99,357.67 610.03,358.71 C610.05,359.14 610.61,358.79 611.28,357.92 C611.95,357.06 613.85,355.49 615.50,354.43 C619.64,351.79 620.54,351.07 625.38,346.50 C627.72,344.30 631.40,341.60 633.56,340.50 C635.73,339.40 637.87,337.93 638.31,337.23 C638.76,336.53 639.58,336.24 640.14,336.59 C641.44,337.39 637.52,341.55 628.50,348.96 C618.56,357.11 608.33,363.75 594.50,371.01 C578.96,379.17 575.74,381.20 568.50,387.35 C548.28,404.54 542.00,416.21 542.00,436.62 C542.00,451.64 543.92,458.19 549.50,462.25 C564.48,473.16 594.69,484.70 615.22,487.37 C622.01,488.25 623.75,488.79 623.11,489.82 C622.30,491.13 617.50,492.17 616.57,491.24 ZM 420.91 489.91 C419.71,489.13 419.72,488.85 421.00,488.02 C421.83,487.47 423.65,487.02 425.05,487.02 C433.25,486.97 461.68,477.43 475.84,469.97 C488.61,463.25 494.54,458.57 496.63,453.57 C498.80,448.37 499.61,432.23 498.07,424.81 C496.25,416.06 490.88,406.01 484.23,398.91 C478.02,392.28 467.41,385.55 441.00,371.48 C420.39,360.50 409.38,352.95 396.15,340.74 C373.01,319.39 355.30,289.46 347.19,257.99 C344.29,246.73 343.67,243.12 342.39,230.00 C341.78,223.67 341.81,223.55 343.63,225.29 C344.88,226.48 345.55,228.65 345.66,231.79 C345.75,234.38 346.09,238.07 346.40,240.00 C346.72,241.93 347.13,244.40 347.31,245.50 C347.50,246.60 347.92,248.40 348.27,249.50 C348.61,250.60 349.14,253.22 349.45,255.33 C349.76,257.44 350.48,260.02 351.04,261.08 C351.61,262.14 351.86,263.00 351.60,263.00 C351.35,263.00 352.66,266.89 354.53,271.65 C356.40,276.41 357.69,280.69 357.41,281.15 C357.12,281.62 357.31,282.00 357.84,282.00 C358.37,282.00 359.27,283.35 359.85,285.00 C360.43,286.65 360.69,288.00 360.45,288.00 C360.20,288.00 360.92,288.92 362.04,290.04 C363.16,291.16 363.80,292.51 363.48,293.04 C363.15,293.57 363.33,294.00 363.87,294.00 C364.42,294.00 365.13,294.83 365.45,295.85 C366.30,298.53 381.86,322.12 384.38,324.55 C385.54,325.68 387.82,328.24 389.44,330.24 C391.06,332.24 392.69,333.69 393.06,333.46 C393.85,332.98 396.87,336.10 396.83,337.36 C396.82,337.84 398.99,339.97 401.66,342.10 C404.32,344.24 407.17,346.60 408.00,347.35 C408.83,348.11 410.48,349.23 411.67,349.86 C412.87,350.48 414.46,351.61 415.22,352.36 C415.98,353.12 418.00,354.46 419.70,355.35 C421.41,356.23 423.61,357.75 424.58,358.73 C425.56,359.70 426.65,360.50 427.01,360.50 C428.34,360.50 435.00,364.49 435.00,365.29 C435.00,365.74 435.41,365.86 435.92,365.55 C436.43,365.24 437.52,365.66 438.35,366.49 C439.18,367.32 440.36,368.00 440.97,368.00 C443.00,368.00 450.00,372.02 450.00,373.19 C450.00,373.82 450.28,374.05 450.63,373.71 C451.53,372.80 456.55,375.60 459.27,378.54 C460.56,379.93 462.94,381.30 464.56,381.59 C467.32,382.09 475.27,386.64 479.26,390.00 C482.93,393.09 492.00,402.39 492.12,403.18 C492.19,403.63 492.31,404.47 492.38,405.04 C492.44,405.61 493.04,406.41 493.71,406.82 C495.38,407.85 499.90,417.97 500.52,422.09 C500.80,423.97 501.00,429.28 500.96,433.91 C500.91,439.79 501.28,442.57 502.20,443.16 C503.26,443.84 503.24,444.16 502.12,444.89 C501.36,445.38 501.03,446.25 501.39,446.82 C501.74,447.39 501.54,448.16 500.95,448.53 C500.35,448.90 500.07,449.74 500.32,450.40 C501.69,453.95 494.69,462.32 485.71,467.87 C483.67,469.13 481.99,469.79 481.97,469.33 C481.95,468.87 481.38,469.23 480.71,470.12 C479.07,472.27 467.83,477.84 466.25,477.28 C465.56,477.03 465.00,477.27 465.00,477.79 C465.00,479.14 452.98,483.50 450.25,483.15 C449.01,482.99 448.00,483.28 448.00,483.80 C448.00,484.59 445.83,485.32 441.25,486.07 C440.84,486.14 439.73,486.61 438.79,487.11 C437.85,487.62 435.82,488.22 434.29,488.46 C428.97,489.27 424.49,490.10 423.41,490.45 C422.81,490.65 421.68,490.41 420.91,489.91 ZM 396.00 336.62 C396.00,336.41 395.21,335.63 394.25,334.87 C392.66,333.63 392.63,333.66 393.87,335.25 C395.18,336.92 396.00,337.45 396.00,336.62 ZM 644.50 490.09 C638.07,489.33 639.60,488.41 648.83,487.50 L 656.17 486.78 L 660.53 480.86 C662.92,477.60 665.17,474.05 665.51,472.97 C666.47,469.96 669.44,470.62 671.27,474.25 C672.18,476.04 674.52,479.59 676.47,482.14 C679.14,485.62 679.68,486.91 678.63,487.31 C676.86,487.99 671.17,482.51 670.38,479.37 C670.05,478.07 669.35,477.00 668.83,477.00 C666.72,477.00 664.20,479.07 663.65,481.24 C662.81,484.59 657.14,490.00 654.46,490.00 C653.20,490.00 651.56,490.15 650.83,490.34 C650.10,490.52 647.25,490.41 644.50,490.09 ZM 387.50 489.00 C387.86,488.42 393.49,488.00 401.00,488.00 C408.51,488.00 414.14,488.42 414.50,489.00 C414.90,489.65 410.16,490.00 401.00,490.00 C391.84,490.00 387.10,489.65 387.50,489.00 ZM 641.00 334.58 C641.00,333.71 641.42,333.00 641.93,333.00 C642.45,333.00 643.16,332.08 643.52,330.95 C643.87,329.82 645.47,327.46 647.07,325.70 C648.66,323.94 650.76,321.61 651.73,320.52 C652.70,319.43 654.78,316.50 656.34,314.02 C657.90,311.53 659.70,309.05 660.34,308.50 C660.98,307.95 662.38,305.78 663.45,303.68 C664.52,301.57 666.41,298.67 667.66,297.22 C668.90,295.77 669.73,294.40 669.50,294.17 C668.94,293.61 674.00,283.66 675.26,282.86 C675.81,282.51 675.97,281.76 675.62,281.19 C675.27,280.63 675.69,279.45 676.55,278.59 C677.42,277.72 677.88,276.62 677.58,276.13 C677.28,275.64 678.15,273.13 679.53,270.54 C680.90,267.96 681.77,265.43 681.45,264.92 C681.14,264.42 681.23,263.44 681.66,262.75 C682.09,262.06 682.54,261.05 682.66,260.50 C682.78,259.95 683.17,258.38 683.51,257.00 C683.86,255.62 684.28,253.60 684.44,252.50 C684.61,251.40 684.84,250.50 684.95,250.50 C685.06,250.50 685.32,249.61 685.52,248.52 C685.73,247.43 686.34,246.39 686.90,246.20 C687.53,245.99 687.57,245.00 687.01,243.54 C686.53,242.25 686.37,240.97 686.66,240.67 C686.95,240.38 687.33,238.87 687.50,237.32 C688.32,229.86 690.83,224.49 692.65,226.31 C693.45,227.12 690.83,242.22 687.48,256.07 C681.27,281.76 668.22,306.81 650.24,327.57 C643.29,335.59 641.00,337.33 641.00,334.58 ZM 493.93 319.60 C493.69,319.37 491.48,318.92 489.00,318.61 C485.05,318.11 478.58,316.79 474.00,315.56 C473.17,315.34 471.96,315.12 471.29,315.08 C470.62,315.03 469.21,314.06 468.14,312.92 C467.07,311.78 465.37,310.97 464.35,311.12 C461.67,311.53 457.00,310.14 457.00,308.92 C457.00,308.35 456.56,308.16 456.01,308.49 C454.33,309.53 427.12,294.76 421.38,289.68 C420.65,289.03 418.85,287.60 417.39,286.50 C415.92,285.40 413.25,283.09 411.44,281.36 C409.63,279.63 407.78,278.05 407.33,277.85 C406.03,277.27 389.67,259.75 388.00,257.15 C387.17,255.86 385.48,253.62 384.22,252.16 C382.97,250.70 380.83,247.16 379.47,244.31 C378.11,241.45 376.54,238.83 375.98,238.48 C374.45,237.54 369.00,226.34 369.71,225.62 C370.05,225.28 369.78,225.00 369.11,225.00 C368.43,225.00 368.16,224.55 368.50,224.00 C368.84,223.45 368.69,223.00 368.18,223.00 C366.33,223.00 358.43,199.92 357.56,192.00 C357.28,189.52 356.81,186.15 356.50,184.50 C356.19,182.85 355.78,179.70 355.58,177.50 C355.38,175.30 355.10,172.82 354.95,172.00 C354.81,171.18 354.76,169.05 354.84,167.28 C355.10,162.07 357.72,164.27 358.48,170.32 C362.12,199.49 365.22,210.40 375.67,230.73 C396.96,272.17 434.75,301.71 482.91,314.58 C488.09,315.96 492.95,316.85 493.71,316.56 C496.44,315.51 505.31,292.66 509.87,274.95 C511.50,268.60 513.63,258.58 514.58,252.70 C515.64,246.23 516.79,242.00 517.49,242.00 C518.21,242.00 519.14,245.73 519.93,251.74 C522.84,273.98 536.14,314.96 540.95,316.48 C543.41,317.27 562.75,312.44 573.93,308.26 C600.93,298.16 627.30,279.31 643.46,258.57 C662.26,234.45 673.82,208.15 677.03,182.22 C678.18,172.99 679.88,169.07 680.16,175.05 C680.36,179.48 680.36,179.50 679.10,186.00 C678.52,189.02 677.80,193.52 677.50,195.99 C676.93,200.69 674.97,207.15 673.86,208.00 C673.50,208.27 672.94,210.16 672.61,212.19 C671.94,216.43 668.02,225.00 666.75,225.00 C665.79,225.00 662.67,231.62 662.44,234.17 C662.16,237.10 651.40,254.17 645.99,260.26 C641.87,264.90 641.18,265.85 641.61,266.27 C641.85,266.52 641.28,267.34 640.33,268.11 C638.85,269.31 638.72,269.30 639.41,268.00 C639.84,267.17 636.57,270.10 632.13,274.50 C627.70,278.90 622.89,283.40 621.45,284.50 C620.02,285.60 618.30,286.99 617.65,287.59 C616.99,288.20 614.66,289.82 612.46,291.21 C610.27,292.59 607.86,294.46 607.11,295.36 C606.37,296.26 604.91,297.00 603.88,297.00 C602.84,297.00 602.00,297.48 602.00,298.06 C602.00,298.64 601.59,298.86 601.09,298.55 C600.58,298.24 600.02,298.41 599.84,298.92 C599.65,299.43 598.84,300.00 598.02,300.17 C597.21,300.35 595.94,301.07 595.19,301.76 C594.45,302.45 593.43,302.76 592.92,302.45 C592.41,302.14 592.00,302.43 592.00,303.11 C592.00,303.78 591.72,304.05 591.38,303.71 C591.04,303.37 590.10,303.75 589.30,304.56 C588.50,305.36 587.36,305.72 586.77,305.36 C586.18,304.99 585.16,305.42 584.51,306.31 C583.00,308.38 574.14,312.21 572.80,311.38 C572.24,311.03 571.46,311.26 571.06,311.90 C570.67,312.53 569.49,313.25 568.43,313.49 C566.71,313.89 561.76,315.18 556.75,316.53 C555.79,316.79 554.04,317.21 552.86,317.47 C551.69,317.73 550.51,318.16 550.23,318.43 C549.96,318.71 548.90,318.48 547.87,317.93 C546.60,317.25 546.00,317.26 546.00,317.96 C546.00,319.45 538.82,319.18 536.76,317.62 C534.85,316.17 531.57,309.10 532.41,308.26 C532.70,307.97 532.06,306.61 530.98,305.25 C529.91,303.88 529.24,302.42 529.50,302.00 C529.76,301.57 529.31,300.67 528.49,299.99 C527.67,299.31 527.00,297.88 527.00,296.81 C527.00,295.74 526.47,293.89 525.82,292.68 C525.17,291.48 524.03,288.02 523.28,285.00 C522.54,281.98 521.72,278.71 521.46,277.75 C521.21,276.79 520.75,274.99 520.44,273.75 C520.13,272.51 519.77,271.05 519.63,270.50 C518.77,267.09 517.55,264.41 516.29,263.15 C515.08,261.94 514.89,261.93 515.12,263.10 C515.28,263.87 514.85,266.13 514.16,268.13 C513.48,270.13 513.03,272.16 513.17,272.63 C513.30,273.11 512.88,275.08 512.24,277.00 C511.60,278.92 510.85,281.81 510.57,283.42 C510.30,285.02 509.57,286.65 508.96,287.03 C508.35,287.40 507.93,288.34 508.04,289.11 C508.44,291.98 507.95,293.90 506.44,295.42 C505.58,296.28 505.10,297.34 505.37,297.79 C506.14,299.04 501.36,310.02 499.42,311.44 C498.44,312.15 497.93,313.38 498.27,314.25 C498.82,315.69 494.89,320.54 493.93,319.60 ZM 690.00 212.60 C690.00,201.87 690.22,200.15 691.50,200.64 C692.70,201.10 693.00,203.30 693.00,211.68 C693.00,219.65 692.64,222.50 691.50,223.64 C690.17,224.98 690.00,223.75 690.00,212.60 ZM 342.67 221.33 C341.60,220.27 341.90,206.18 343.00,205.50 C343.64,205.11 344.00,207.99 344.00,213.44 C344.00,222.02 343.91,222.57 342.67,221.33 ZM 342.02 198.72 C342.09,189.72 347.87,163.74 352.53,151.50 C353.78,148.20 355.42,143.74 356.17,141.58 C357.95,136.42 360.61,135.29 359.59,140.12 C359.20,141.98 358.62,145.84 358.30,148.70 C357.93,152.08 357.22,154.01 356.29,154.20 C354.80,154.51 350.40,166.42 349.92,171.48 C349.89,171.74 349.43,173.43 348.88,175.23 C347.02,181.37 345.10,191.92 345.25,195.14 C345.40,198.34 344.91,199.82 343.50,200.36 C342.44,200.77 342.01,200.28 342.02,198.72 ZM 690.22 197.75 C689.65,197.06 688.86,194.25 688.47,191.50 C688.07,188.75 687.38,185.80 686.94,184.95 C686.50,184.09 686.53,182.75 687.02,181.97 C687.54,181.13 687.50,180.31 686.92,179.95 C686.39,179.62 685.74,178.37 685.48,177.18 C684.46,172.53 684.14,171.40 683.02,168.50 C682.38,166.85 681.89,165.27 681.92,165.00 C682.13,163.15 680.60,160.94 679.41,161.40 C678.26,161.84 678.00,160.27 678.00,152.97 C678.00,147.87 678.42,144.00 678.96,144.00 C680.27,144.00 682.00,147.39 682.00,149.93 C682.00,151.06 682.89,154.58 683.97,157.75 C686.83,166.11 688.83,174.11 691.03,186.00 C693.24,197.99 693.33,199.00 692.12,199.00 C691.64,199.00 690.78,198.44 690.22,197.75 Z" fill="rgba(253,253,253,1)"/>
  </g>
</svg>